<svg xmlns="http://www.w3.org/2000/svg" xmlns:xlink="http://www.w3.org/1999/xlink" width="500" zoomAndPan="magnify" viewBox="0 0 375 374.999991" height="500" preserveAspectRatio="xMidYMid meet" version="1.0"><path fill="#ffffff" d="M 114.757812 266.566406 L 74.800781 266.566406 C 74.53125 266.566406 74.308594 266.347656 74.308594 266.074219 C 74.308594 265.800781 74.53125 265.582031 74.800781 265.582031 L 114.265625 265.582031 L 114.265625 238.640625 C 114.265625 238.367188 114.484375 238.144531 114.757812 238.144531 L 151.253906 238.144531 L 151.253906 211.421875 C 151.253906 211.148438 151.476562 210.925781 151.746094 210.925781 L 184.976562 210.925781 L 184.976562 183.109375 C 184.976562 182.839844 185.195312 182.617188 185.46875 182.617188 L 227.875 182.617188 C 228.144531 182.617188 228.367188 182.839844 228.367188 183.109375 C 228.367188 183.382812 228.144531 183.601562 227.875 183.601562 L 185.960938 183.601562 L 185.960938 211.421875 C 185.960938 211.691406 185.742188 211.914062 185.46875 211.914062 L 152.238281 211.914062 L 152.238281 238.640625 C 152.238281 238.910156 152.019531 239.128906 151.746094 239.128906 L 115.25 239.128906 L 115.25 266.074219 C 115.25 266.347656 115.027344 266.566406 114.757812 266.566406 " fill-opacity="1" fill-rule="nonzero"/><path fill="#56acbf" d="M 71.320312 198.324219 C 92.164062 177.089844 52.890625 137.539062 62.65625 108.964844 C 75.800781 70.496094 182.738281 37.511719 254.714844 79.394531 C 314.992188 114.46875 335.925781 193.414062 309.589844 225.320312 C 301.707031 234.871094 291.902344 237.414062 279.019531 247.398438 C 267.039062 256.691406 265.6875 259.0625 264.824219 260.679688 C 256.304688 276.632812 274.226562 290.636719 270.617188 304.320312 C 264.917969 325.941406 207.925781 337.476562 160.261719 330.160156 C 147.410156 328.183594 82.28125 316.710938 58.324219 269.035156 C 56.46875 265.347656 38.929688 229.714844 55.433594 209.894531 C 61.160156 203.019531 65.765625 203.984375 71.320312 198.324219 " fill-opacity="1" fill-rule="nonzero"/><path fill="#ffffff" d="M 123.394531 270.667969 L 83.4375 270.667969 C 83.167969 270.667969 82.945312 270.449219 82.945312 270.175781 C 82.945312 269.90625 83.167969 269.683594 83.4375 269.683594 L 122.902344 269.683594 L 122.902344 242.742188 C 122.902344 242.46875 123.121094 242.25 123.394531 242.25 L 159.890625 242.25 L 159.890625 215.523438 C 159.890625 215.253906 160.109375 215.03125 160.382812 215.03125 L 193.613281 215.03125 L 193.613281 187.214844 C 193.613281 186.941406 193.832031 186.722656 194.105469 186.722656 L 236.511719 186.722656 C 236.78125 186.722656 237 186.941406 237 187.214844 C 237 187.484375 236.78125 187.707031 236.511719 187.707031 L 194.597656 187.707031 L 194.597656 215.523438 C 194.597656 215.796875 194.378906 216.015625 194.105469 216.015625 L 160.875 216.015625 L 160.875 242.742188 C 160.875 243.015625 160.65625 243.234375 160.382812 243.234375 L 123.886719 243.234375 L 123.886719 270.175781 C 123.886719 270.449219 123.664062 270.667969 123.394531 270.667969 " fill-opacity="1" fill-rule="nonzero"/><path fill="#ffffff" d="M 140.917969 287.75 L 100.960938 287.75 C 100.691406 287.75 100.46875 287.53125 100.46875 287.257812 C 100.46875 286.984375 100.691406 286.765625 100.960938 286.765625 L 140.425781 286.765625 L 140.425781 259.824219 C 140.425781 259.550781 140.644531 259.332031 140.917969 259.332031 L 177.414062 259.332031 L 177.414062 232.605469 C 177.414062 232.335938 177.632812 232.113281 177.90625 232.113281 L 211.136719 232.113281 L 211.136719 204.296875 C 211.136719 204.023438 211.355469 203.804688 211.628906 203.804688 L 254.035156 203.804688 C 254.304688 203.804688 254.527344 204.023438 254.527344 204.296875 C 254.527344 204.566406 254.304688 204.789062 254.035156 204.789062 L 212.121094 204.789062 L 212.121094 232.605469 C 212.121094 232.878906 211.898438 233.097656 211.628906 233.097656 L 178.398438 233.097656 L 178.398438 259.824219 C 178.398438 260.09375 178.179688 260.316406 177.90625 260.316406 L 141.410156 260.316406 L 141.410156 287.257812 C 141.410156 287.53125 141.191406 287.75 140.917969 287.75 " fill-opacity="1" fill-rule="nonzero"/><path fill="#ffffff" d="M 133.921875 300.921875 L 134.453125 311.40625 L 129.402344 311.355469 L 127.894531 301.226562 L 133.921875 300.921875 " fill-opacity="1" fill-rule="nonzero"/><path fill="#000000" d="M 129.824219 310.867188 L 133.933594 310.910156 L 133.457031 301.4375 L 128.464844 301.691406 Z M 134.453125 311.898438 C 134.449219 311.898438 134.449219 311.898438 134.449219 311.898438 L 129.394531 311.847656 C 129.152344 311.84375 128.949219 311.667969 128.914062 311.425781 L 127.410156 301.300781 C 127.390625 301.164062 127.429688 301.023438 127.515625 300.914062 C 127.605469 300.804688 127.734375 300.742188 127.871094 300.734375 L 133.898438 300.429688 C 134.167969 300.425781 134.402344 300.625 134.414062 300.898438 L 134.945312 311.382812 C 134.949219 311.519531 134.902344 311.652344 134.808594 311.75 C 134.714844 311.84375 134.585938 311.898438 134.453125 311.898438 " fill-opacity="1" fill-rule="nonzero"/><path fill="#ffffff" d="M 129.320312 324.773438 C 131.382812 324.890625 137.046875 324.773438 138.621094 323.992188 C 140.007812 323.300781 141.109375 320.328125 140.339844 319.277344 C 138.40625 316.648438 136.953125 311.996094 135.714844 308.363281 C 135.644531 308.15625 135.363281 308.128906 135.253906 308.316406 L 134.257812 309.996094 L 133.378906 308.128906 C 133.238281 307.921875 133.011719 307.792969 132.765625 307.78125 L 130.996094 307.839844 C 130.589844 307.820312 130.175781 308.234375 129.953125 308.617188 L 128.761719 310.273438 L 127.988281 309.007812 C 127.859375 308.796875 127.53125 308.875 127.515625 309.125 L 126.652344 321.421875 C 126.707031 323.386719 128.121094 324.703125 129.320312 324.773438 " fill-opacity="1" fill-rule="nonzero"/><path fill="#000000" d="M 127.144531 321.433594 C 127.203125 323.191406 128.480469 324.234375 129.347656 324.28125 C 131.6875 324.414062 137.03125 324.230469 138.402344 323.550781 C 139.042969 323.230469 139.726562 322.15625 139.996094 321.054688 C 140.152344 320.398438 140.132812 319.832031 139.941406 319.570312 C 138.164062 317.148438 136.820312 313.167969 135.632812 309.65625 C 135.558594 309.4375 135.484375 309.222656 135.414062 309.011719 L 134.683594 310.246094 C 134.589844 310.402344 134.417969 310.5 134.234375 310.488281 C 134.054688 310.476562 133.890625 310.371094 133.8125 310.207031 L 132.953125 308.378906 C 132.902344 308.320312 132.832031 308.28125 132.757812 308.273438 L 131.011719 308.332031 C 131 308.332031 130.988281 308.332031 130.976562 308.332031 C 130.972656 308.328125 130.972656 308.328125 130.972656 308.328125 C 130.851562 308.328125 130.574219 308.53125 130.378906 308.863281 C 130.371094 308.878906 130.359375 308.890625 130.351562 308.90625 L 129.160156 310.558594 C 129.0625 310.695312 128.910156 310.773438 128.742188 310.765625 C 128.578125 310.757812 128.425781 310.671875 128.339844 310.527344 L 127.953125 309.898438 Z M 131.082031 325.304688 C 130.359375 325.304688 129.734375 325.289062 129.292969 325.265625 C 127.828125 325.179688 126.222656 323.625 126.160156 321.4375 C 126.160156 321.421875 126.160156 321.40625 126.160156 321.390625 L 127.023438 309.089844 C 127.046875 308.765625 127.277344 308.492188 127.59375 308.417969 C 127.910156 308.335938 128.238281 308.472656 128.40625 308.75 L 128.792969 309.382812 L 129.539062 308.347656 C 129.820312 307.875 130.355469 307.347656 130.972656 307.347656 C 130.980469 307.347656 130.988281 307.347656 130.996094 307.347656 L 132.75 307.289062 C 132.761719 307.289062 132.773438 307.289062 132.785156 307.289062 C 133.1875 307.308594 133.5625 307.519531 133.785156 307.855469 C 133.800781 307.875 133.8125 307.894531 133.824219 307.917969 L 134.308594 308.945312 L 134.828125 308.066406 C 134.980469 307.8125 135.253906 307.671875 135.546875 307.703125 C 135.84375 307.734375 136.082031 307.921875 136.179688 308.203125 C 136.304688 308.574219 136.433594 308.953125 136.566406 309.339844 C 137.726562 312.785156 139.046875 316.6875 140.734375 318.984375 C 141.109375 319.496094 141.1875 320.3125 140.953125 321.285156 C 140.675781 322.433594 139.894531 323.90625 138.839844 324.433594 C 137.484375 325.109375 133.65625 325.304688 131.082031 325.304688 " fill-opacity="1" fill-rule="nonzero"/><path fill="#000000" d="M 132.507812 322.929688 C 130.285156 322.929688 128.785156 322.523438 128.683594 322.496094 C 128.421875 322.421875 128.269531 322.152344 128.339844 321.890625 C 128.414062 321.628906 128.683594 321.476562 128.945312 321.546875 C 128.984375 321.558594 133 322.632812 137.617188 321.164062 C 137.875 321.082031 138.152344 321.222656 138.234375 321.484375 C 138.316406 321.742188 138.175781 322.019531 137.914062 322.101562 C 135.914062 322.738281 134.039062 322.929688 132.507812 322.929688 " fill-opacity="1" fill-rule="nonzero"/><path fill="#000000" d="M 130.9375 317.527344 C 130.675781 317.527344 130.457031 317.320312 130.445312 317.058594 C 130.433594 316.785156 130.640625 316.554688 130.914062 316.542969 L 135.507812 316.308594 C 135.773438 316.300781 136.011719 316.503906 136.023438 316.777344 C 136.039062 317.050781 135.828125 317.28125 135.558594 317.292969 L 130.960938 317.527344 C 130.953125 317.527344 130.945312 317.527344 130.9375 317.527344 " fill-opacity="1" fill-rule="nonzero"/><path fill="#ffffff" d="M 96.597656 297.246094 L 95.746094 309.960938 L 91.019531 310.035156 L 90.390625 297.558594 L 96.597656 297.246094 " fill-opacity="1" fill-rule="nonzero"/><path fill="#000000" d="M 90.90625 298.023438 L 91.488281 309.535156 L 95.285156 309.476562 L 96.070312 297.765625 Z M 91.019531 310.527344 C 90.757812 310.527344 90.539062 310.320312 90.527344 310.058594 L 89.898438 297.582031 C 89.890625 297.453125 89.9375 297.324219 90.023438 297.226562 C 90.113281 297.132812 90.234375 297.074219 90.363281 297.066406 L 96.574219 296.753906 C 96.714844 296.75 96.851562 296.796875 96.949219 296.898438 C 97.046875 297 97.097656 297.136719 97.089844 297.277344 L 96.238281 309.992188 C 96.222656 310.25 96.011719 310.449219 95.753906 310.453125 L 91.027344 310.527344 C 91.023438 310.527344 91.019531 310.527344 91.019531 310.527344 " fill-opacity="1" fill-rule="nonzero"/><path fill="#ffffff" d="M 97.140625 306.875 C 97.140625 306.875 97.609375 312.472656 97.535156 314.738281 C 97.480469 316.359375 95.515625 321.351562 94.398438 324.0625 C 93.941406 325.175781 92.917969 326.070312 91.871094 326.367188 C 89.898438 326.921875 88.929688 326.945312 87.078125 326.738281 C 84.585938 326.460938 83.703125 324.234375 84.324219 322.027344 C 84.894531 319.992188 85.902344 317.734375 87.617188 314.933594 C 88.859375 312.902344 89.789062 307.027344 89.789062 307.027344 L 93.636719 306.832031 L 94.886719 310.003906 L 97.140625 306.875 " fill-opacity="1" fill-rule="nonzero"/><path fill="#000000" d="M 90.210938 307.5 C 89.976562 308.875 89.136719 313.390625 88.035156 315.1875 C 86.421875 317.832031 85.390625 320.050781 84.796875 322.160156 C 84.484375 323.277344 84.597656 324.355469 85.113281 325.121094 C 85.542969 325.761719 86.242188 326.148438 87.132812 326.25 C 88.925781 326.449219 89.84375 326.425781 91.734375 325.890625 C 92.667969 325.628906 93.554688 324.816406 93.945312 323.875 C 95.875 319.179688 97.007812 315.84375 97.042969 314.722656 C 97.09375 313.183594 96.886719 310.046875 96.753906 308.253906 L 95.285156 310.292969 C 95.179688 310.4375 95.003906 310.515625 94.824219 310.492188 C 94.648438 310.46875 94.496094 310.351562 94.429688 310.183594 L 93.308594 307.34375 Z M 88.832031 327.351562 C 88.285156 327.351562 87.710938 327.304688 87.023438 327.226562 C 85.835938 327.09375 84.894531 326.558594 84.296875 325.671875 C 83.621094 324.664062 83.457031 323.289062 83.847656 321.894531 C 84.46875 319.691406 85.53125 317.398438 87.195312 314.675781 C 88.375 312.75 89.296875 307.007812 89.304688 306.949219 C 89.339844 306.71875 89.535156 306.546875 89.765625 306.535156 L 93.613281 306.339844 C 93.824219 306.332031 94.019531 306.457031 94.09375 306.652344 L 95.015625 308.984375 L 96.738281 306.589844 C 96.859375 306.421875 97.074219 306.347656 97.269531 306.398438 C 97.46875 306.457031 97.613281 306.628906 97.628906 306.832031 C 97.648438 307.0625 98.101562 312.484375 98.027344 314.753906 C 97.972656 316.359375 96.273438 320.804688 94.855469 324.25 C 94.351562 325.476562 93.230469 326.492188 92.003906 326.839844 C 90.699219 327.207031 89.804688 327.351562 88.832031 327.351562 " fill-opacity="1" fill-rule="nonzero"/><path fill="#000000" d="M 95.273438 317.265625 Z M 95.269531 317.269531 Z M 88.105469 325.054688 C 87.511719 325.054688 86.851562 324.996094 86.296875 324.808594 C 86.039062 324.722656 85.902344 324.445312 85.988281 324.1875 C 86.074219 323.929688 86.351562 323.789062 86.609375 323.875 C 87.484375 324.167969 88.847656 324.066406 89.375 323.96875 C 90.28125 323.804688 91.105469 323.324219 91.691406 322.617188 C 92.191406 322.015625 92.550781 321.472656 92.757812 320.992188 C 93.179688 320.015625 93.605469 318.902344 93.917969 318.089844 C 94.429688 316.761719 94.476562 316.65625 94.609375 316.535156 C 94.8125 316.355469 95.125 316.371094 95.304688 316.570312 C 95.464844 316.75 95.472656 317.011719 95.335938 317.195312 C 95.265625 317.335938 95.046875 317.898438 94.839844 318.445312 C 94.523438 319.265625 94.089844 320.390625 93.660156 321.386719 C 93.414062 321.945312 93.007812 322.574219 92.449219 323.25 C 91.714844 324.132812 90.683594 324.734375 89.550781 324.941406 C 89.285156 324.988281 88.734375 325.054688 88.105469 325.054688 " fill-opacity="1" fill-rule="nonzero"/><path fill="#000000" d="M 87.488281 319.875 C 87.230469 319.875 87.011719 319.667969 87 319.40625 C 86.984375 319.132812 87.195312 318.902344 87.464844 318.890625 L 91.675781 318.675781 C 91.945312 318.664062 92.179688 318.871094 92.191406 319.144531 C 92.207031 319.417969 91.996094 319.648438 91.726562 319.660156 L 87.515625 319.875 C 87.507812 319.875 87.5 319.875 87.488281 319.875 " fill-opacity="1" fill-rule="nonzero"/><path fill="#000000" d="M 137.824219 259.5 C 137.773438 263.160156 137.679688 266.691406 137.5625 270.066406 C 137.480469 272.402344 137.386719 274.660156 137.285156 276.824219 C 136.652344 290.03125 135.699219 299.789062 135.363281 302.957031 C 135.292969 303.632812 134.792969 304.179688 134.128906 304.300781 C 134.117188 304.304688 134.105469 304.304688 134.09375 304.308594 C 132.785156 304.546875 130.5625 304.832031 128.390625 304.542969 C 128.375 304.542969 128.359375 304.539062 128.347656 304.539062 C 127.730469 304.453125 127.226562 304.023438 127.0625 303.421875 C 125.890625 299.152344 121.082031 281.289062 120.734375 274.386719 C 120.363281 266.90625 121.605469 264.964844 121.449219 258.867188 C 121.332031 254.296875 118.988281 238.144531 117.816406 230.3125 C 117.664062 229.289062 116.21875 229.183594 115.929688 230.1875 C 113.804688 237.445312 109.292969 253.136719 105.144531 269.210938 C 104.929688 270.035156 104.023438 277.019531 103.816406 277.828125 C 101.246094 287.875 98.761719 295.949219 97.9375 300.648438 C 97.804688 301.410156 97.21875 302.015625 96.464844 302.175781 C 96.398438 302.1875 96.332031 302.207031 96.265625 302.214844 C 94.859375 302.503906 92.675781 302.777344 90.632812 302.320312 C 90.535156 302.300781 90.433594 302.273438 90.335938 302.25 C 89.535156 302.035156 88.976562 301.320312 88.941406 300.492188 C 88.726562 295.375 87.953125 276.351562 88.230469 273.136719 C 88.808594 266.242188 93.808594 259.230469 94.402344 251.910156 C 94.453125 251.28125 94.496094 250.578125 94.535156 249.800781 C 94.816406 244.164062 94.84375 234.890625 95.433594 226.347656 C 95.707031 222.324219 96.113281 218.460938 96.722656 215.214844 C 96.785156 214.871094 96.855469 214.53125 96.921875 214.1875 C 97.46875 211.464844 98.148438 208.6875 98.855469 206.050781 L 98.859375 206.046875 L 98.859375 206.039062 C 100.976562 198.179688 103.375 191.570312 103.375 191.570312 L 105.050781 191.78125 L 107.945312 192.136719 L 108.191406 192.167969 L 136.730469 195.699219 C 136.730469 195.699219 136.777344 196.941406 136.851562 199.125 C 136.890625 200.304688 136.9375 201.761719 136.992188 203.445312 L 136.992188 203.449219 C 137.105469 207.054688 137.246094 211.703125 137.375 216.929688 C 137.605469 226.011719 137.824219 236.84375 137.871094 246.976562 C 137.890625 251.339844 137.878906 255.582031 137.824219 259.5 " fill-opacity="1" fill-rule="nonzero"/><path fill="#000000" d="M 124.566406 157.785156 C 124.816406 160.429688 124.882812 162.996094 124.570312 165.339844 C 124.304688 167.386719 123.75 169.261719 122.789062 170.867188 C 122.019531 172.144531 121.019531 173.367188 119.832031 174.480469 C 118.546875 175.703125 117.046875 176.800781 115.386719 177.726562 C 112.949219 179.101562 110.171875 180.101562 107.257812 180.570312 C 106.546875 180.691406 105.820312 180.777344 105.097656 180.828125 C 104.324219 180.878906 103.550781 180.894531 102.769531 180.867188 C 100.925781 180.800781 99.066406 180.503906 97.238281 179.9375 C 96.539062 179.722656 95.847656 179.464844 95.160156 179.167969 C 85.546875 175.003906 78.835938 165.308594 81.566406 156.921875 L 81.570312 156.921875 C 81.734375 156.410156 81.933594 155.90625 82.167969 155.410156 C 85.886719 147.582031 92.914062 151.285156 97.179688 143.570312 C 101.382812 135.964844 97.523438 132.386719 100.597656 128.578125 C 102.753906 125.910156 104.878906 125.566406 107.449219 125.199219 C 109.003906 124.976562 110.714844 124.75 112.691406 124 C 113.835938 123.5625 115.074219 122.945312 116.421875 122.058594 C 118.699219 120.554688 122.285156 121.035156 124.332031 124 C 124.664062 124.480469 124.957031 125.027344 125.199219 125.648438 C 126.058594 127.875 125.195312 129.789062 124.21875 131.546875 C 123.859375 132.207031 123.484375 132.84375 123.175781 133.464844 C 122.976562 133.871094 122.808594 134.269531 122.691406 134.660156 C 122.191406 136.347656 122.105469 138.402344 122.25 140.695312 C 122.253906 140.769531 122.257812 140.851562 122.265625 140.929688 C 122.304688 141.496094 122.359375 142.078125 122.417969 142.671875 C 122.605469 144.382812 122.878906 146.191406 123.171875 148.046875 C 123.1875 148.109375 123.195312 148.179688 123.207031 148.246094 C 123.480469 149.933594 123.761719 151.660156 124.015625 153.386719 C 124.238281 154.859375 124.429688 156.335938 124.566406 157.785156 " fill-opacity="1" fill-rule="nonzero"/><path fill="#ffffff" d="M 102.15625 211.914062 C 101.972656 211.914062 101.796875 211.808594 101.710938 211.628906 C 101.597656 211.382812 101.703125 211.089844 101.949219 210.976562 C 108.476562 207.902344 110.117188 201.277344 110.132812 201.210938 C 110.195312 200.945312 110.460938 200.785156 110.722656 200.847656 C 110.988281 200.910156 111.152344 201.171875 111.089844 201.4375 C 111.019531 201.730469 109.320312 208.59375 102.367188 211.863281 C 102.300781 211.898438 102.226562 211.914062 102.15625 211.914062 " fill-opacity="1" fill-rule="nonzero"/><path fill="#ffffff" d="M 162.636719 114.617188 L 160.949219 120.023438 C 160.394531 121.699219 160.671875 123.539062 161.699219 124.972656 L 163.589844 127.6875 C 163.90625 128.140625 163.992188 128.683594 164 129.230469 C 164.023438 130.457031 163.839844 132.328125 163.839844 132.328125 L 168.347656 132.402344 C 168.347656 132.402344 167.851562 130.027344 167.625 129.210938 C 167.332031 128.167969 167.324219 127.023438 167.78125 126.039062 C 169.226562 122.910156 168.804688 119.765625 168.804688 119.765625 L 165.71875 120.589844 C 165.71875 120.589844 164.761719 118.964844 164.941406 116.128906 C 164.988281 115.433594 164.914062 114.90625 164.773438 114.5 C 164.414062 113.464844 162.910156 113.550781 162.636719 114.617188 " fill-opacity="1" fill-rule="nonzero"/><path fill="#000000" d="M 162.636719 114.617188 L 162.640625 114.617188 Z M 164.378906 131.847656 L 167.738281 131.898438 C 167.574219 131.144531 167.300781 129.882812 167.148438 129.34375 C 166.800781 128.089844 166.867188 126.84375 167.332031 125.832031 C 168.347656 123.636719 168.398438 121.410156 168.359375 120.394531 L 165.84375 121.066406 C 165.632812 121.121094 165.40625 121.03125 165.292969 120.839844 C 165.25 120.769531 164.265625 119.050781 164.449219 116.097656 C 164.488281 115.523438 164.4375 115.039062 164.308594 114.664062 C 164.171875 114.273438 163.8125 114.253906 163.710938 114.261719 C 163.480469 114.273438 163.199219 114.402344 163.113281 114.738281 C 163.113281 114.75 163.109375 114.753906 163.105469 114.761719 L 161.421875 120.167969 C 160.914062 121.699219 161.167969 123.382812 162.101562 124.6875 L 163.996094 127.40625 C 164.421875 128.019531 164.484375 128.734375 164.496094 129.222656 C 164.507812 130.070312 164.433594 131.191406 164.378906 131.847656 Z M 168.347656 132.894531 C 168.34375 132.894531 168.339844 132.894531 168.339844 132.894531 L 163.832031 132.820312 C 163.695312 132.820312 163.5625 132.761719 163.472656 132.65625 C 163.382812 132.554688 163.339844 132.417969 163.351562 132.28125 C 163.351562 132.261719 163.53125 130.421875 163.507812 129.238281 C 163.5 128.671875 163.394531 128.269531 163.1875 127.96875 L 161.296875 125.253906 C 160.183594 123.703125 159.878906 121.6875 160.484375 119.867188 L 162.164062 114.480469 C 162.347656 113.789062 162.949219 113.308594 163.667969 113.277344 C 164.386719 113.25 165.003906 113.664062 165.238281 114.339844 C 165.414062 114.84375 165.476562 115.453125 165.433594 116.15625 C 165.3125 118.082031 165.742188 119.421875 165.988281 120.011719 L 168.675781 119.292969 C 168.8125 119.253906 168.960938 119.277344 169.078125 119.359375 C 169.195312 119.433594 169.273438 119.558594 169.292969 119.703125 C 169.308594 119.835938 169.71875 123.023438 168.226562 126.246094 C 167.859375 127.046875 167.8125 128.050781 168.097656 129.078125 C 168.328125 129.898438 168.808594 132.207031 168.828125 132.300781 C 168.859375 132.449219 168.820312 132.601562 168.726562 132.71875 C 168.632812 132.832031 168.492188 132.894531 168.347656 132.894531 " fill-opacity="1" fill-rule="nonzero"/><path fill="#052a6e" d="M 132.621094 148.769531 C 136.558594 149.207031 148.417969 154.449219 155.332031 147.347656 C 162.246094 140.246094 162.585938 130.804688 162.585938 130.804688 L 169.351562 130.222656 C 169.351562 130.222656 174.007812 141.292969 169.175781 154.199219 C 164.246094 167.371094 140.488281 172.003906 140.488281 172.003906 L 132.621094 148.769531 " fill-opacity="1" fill-rule="nonzero"/><path fill="#052a6e" d="M 142.007812 204.03125 C 141.816406 209.410156 141.140625 214.011719 139.507812 215.457031 C 138.898438 215.996094 138.183594 216.488281 137.375 216.929688 C 127.429688 222.414062 103.472656 220.972656 96.921875 214.1875 C 96.332031 213.574219 95.882812 212.917969 95.597656 212.222656 C 95.367188 211.652344 95.171875 210.964844 95.011719 210.171875 C 93.792969 204.082031 94.703125 191.820312 97.238281 179.9375 C 98.054688 176.132812 99.03125 172.363281 100.160156 168.84375 C 103.042969 159.871094 106.90625 152.554688 111.46875 150.46875 C 112.558594 149.96875 113.820312 149.535156 115.203125 149.179688 C 116.824219 148.757812 118.613281 148.445312 120.492188 148.246094 C 121.371094 148.152344 122.265625 148.082031 123.171875 148.046875 C 123.304688 148.042969 123.4375 148.03125 123.566406 148.03125 C 125.597656 147.960938 127.679688 148.023438 129.71875 148.246094 C 132.117188 148.5 134.460938 148.964844 136.601562 149.667969 C 136.605469 149.667969 136.609375 149.667969 136.617188 149.671875 C 138.199219 150.1875 139.675781 150.835938 140.980469 151.621094 L 140.996094 157.785156 L 141.007812 165.339844 L 141.019531 171.886719 L 141.027344 174.480469 L 141.035156 177.375 C 141.039062 178.925781 141.078125 180.484375 141.164062 182.035156 C 141.210938 182.878906 141.265625 183.722656 141.339844 184.566406 C 141.492188 186.390625 141.671875 188.839844 141.816406 191.578125 C 141.890625 192.90625 141.949219 194.300781 141.996094 195.722656 C 142.03125 196.847656 142.054688 197.992188 142.066406 199.125 C 142.082031 200.789062 142.066406 202.445312 142.007812 204.03125 " fill-opacity="1" fill-rule="nonzero"/><path fill="#ffffff" d="M 113.578125 137.214844 C 113.855469 137.226562 114.074219 136.992188 114.042969 136.714844 C 113.902344 135.40625 113.484375 132.941406 114.738281 131.835938 C 116.347656 130.421875 119.03125 128.265625 120.066406 129.582031 C 120.980469 130.738281 121.898438 133.082031 124.097656 133.953125 C 124.308594 134.039062 124.328125 134.34375 124.234375 134.546875 L 123.773438 135.71875 C 123.667969 135.949219 123.761719 136.484375 123.859375 136.722656 C 124.164062 137.449219 124.871094 138.972656 124.734375 139.289062 C 124.46875 139.910156 122.066406 141.019531 122.066406 141.019531 L 123.65625 148.449219 C 123.714844 148.730469 123.902344 149.199219 124.179688 149.128906 L 127.113281 149.347656 C 127.113281 149.347656 126.929688 153.371094 120.691406 154.484375 C 112.542969 155.9375 111.46875 150.464844 111.46875 150.464844 C 111.46875 150.464844 119.4375 150.339844 115.96875 141.648438 C 115.890625 141.457031 115.71875 141.320312 115.515625 141.289062 C 114.742188 141.171875 112.597656 140.75 112.191406 139.371094 C 111.757812 137.902344 112.632812 137.171875 113.578125 137.214844 " fill-opacity="1" fill-rule="nonzero"/><path fill="#000000" d="M 113.601562 136.71875 Z M 124.257812 139.179688 Z M 112.125 150.902344 C 112.628906 152.160156 114.488281 155.085938 120.605469 154 C 125.152344 153.1875 126.265625 150.820312 126.535156 149.796875 L 124.199219 149.625 C 124.039062 149.640625 123.878906 149.601562 123.738281 149.515625 C 123.363281 149.28125 123.21875 148.765625 123.171875 148.550781 L 121.585938 141.125 C 121.535156 140.898438 121.648438 140.671875 121.859375 140.574219 C 122.957031 140.066406 124.035156 139.414062 124.253906 139.132812 C 124.214844 138.792969 123.769531 137.757812 123.574219 137.304688 C 123.511719 137.160156 123.453125 137.027344 123.40625 136.910156 C 123.300781 136.65625 123.128906 135.945312 123.328125 135.511719 L 123.777344 134.367188 C 123.777344 134.363281 123.78125 134.359375 123.78125 134.355469 C 122.070312 133.621094 121.121094 132.113281 120.359375 130.898438 C 120.117188 130.515625 119.894531 130.15625 119.683594 129.890625 C 119.574219 129.753906 119.445312 129.6875 119.265625 129.667969 C 118.46875 129.601562 117.058594 130.449219 115.066406 132.207031 C 114.113281 133.046875 114.351562 135.078125 114.492188 136.292969 C 114.507812 136.425781 114.523438 136.546875 114.535156 136.664062 C 114.5625 136.9375 114.472656 137.210938 114.285156 137.410156 C 114.097656 137.609375 113.835938 137.710938 113.558594 137.707031 C 113.222656 137.691406 112.929688 137.808594 112.753906 138.03125 C 112.542969 138.300781 112.511719 138.714844 112.664062 139.230469 C 112.988281 140.324219 114.984375 140.710938 115.589844 140.800781 C 115.964844 140.859375 116.285156 141.113281 116.425781 141.464844 C 117.609375 144.429688 117.640625 146.789062 116.515625 148.476562 C 115.328125 150.261719 113.195312 150.761719 112.125 150.902344 Z M 118.125 155.21875 C 111.980469 155.21875 110.996094 150.613281 110.988281 150.558594 C 110.960938 150.417969 110.996094 150.269531 111.089844 150.15625 C 111.179688 150.042969 111.316406 149.976562 111.460938 149.972656 C 111.492188 149.972656 114.394531 149.894531 115.699219 147.925781 C 116.628906 146.523438 116.566406 144.472656 115.511719 141.832031 C 115.5 141.800781 115.472656 141.78125 115.445312 141.777344 C 114.25 141.59375 112.175781 141.058594 111.71875 139.507812 C 111.476562 138.6875 111.570312 137.949219 111.980469 137.425781 C 112.339844 136.960938 112.910156 136.707031 113.550781 136.71875 C 113.539062 136.621094 113.527344 136.515625 113.515625 136.410156 C 113.339844 134.910156 113.074219 132.644531 114.414062 131.464844 C 116.714844 129.441406 118.238281 128.582031 119.355469 128.6875 C 119.800781 128.726562 120.183594 128.933594 120.453125 129.277344 C 120.699219 129.589844 120.9375 129.96875 121.191406 130.371094 C 121.898438 131.5 122.78125 132.902344 124.277344 133.496094 C 124.476562 133.574219 124.628906 133.730469 124.710938 133.9375 C 124.8125 134.183594 124.800781 134.492188 124.683594 134.753906 L 124.234375 135.898438 C 124.199219 136.007812 124.242188 136.359375 124.316406 136.53125 C 124.359375 136.640625 124.417969 136.773438 124.476562 136.914062 C 125.148438 138.46875 125.355469 139.089844 125.1875 139.484375 C 124.917969 140.105469 123.503906 140.875 122.628906 141.300781 L 124.136719 148.347656 C 124.160156 148.460938 124.207031 148.574219 124.242188 148.640625 L 127.148438 148.855469 C 127.414062 148.875 127.617188 149.101562 127.605469 149.367188 C 127.597656 149.546875 127.328125 153.800781 120.78125 154.96875 C 119.800781 155.140625 118.921875 155.21875 118.125 155.21875 " fill-opacity="1" fill-rule="nonzero"/><path fill="#ffffff" d="M 145.488281 197.976562 C 145.488281 197.976562 150.261719 196.28125 153.574219 197.214844 C 153.574219 197.214844 154.066406 199.28125 155.496094 200.203125 C 156.925781 201.125 160.421875 201.550781 161.089844 203.539062 C 161.757812 205.527344 154.761719 207.441406 152.265625 206.433594 C 149.765625 205.425781 147.511719 202.914062 145.140625 203.03125 C 142.769531 203.152344 145.488281 197.976562 145.488281 197.976562 " fill-opacity="1" fill-rule="nonzero"/><path fill="#000000" d="M 145.304688 202.535156 C 146.863281 202.535156 148.339844 203.503906 149.769531 204.445312 C 150.640625 205.019531 151.542969 205.613281 152.449219 205.976562 C 154.21875 206.691406 158.847656 205.742188 160.308594 204.367188 C 160.582031 204.109375 160.6875 203.882812 160.625 203.699219 C 160.25 202.578125 158.632812 201.992188 157.207031 201.476562 C 156.453125 201.207031 155.742188 200.945312 155.230469 200.617188 C 153.976562 199.808594 153.378906 198.265625 153.175781 197.621094 C 150.425781 196.980469 146.695312 198.101562 145.835938 198.378906 C 145.039062 199.953125 144.410156 201.894531 144.753906 202.425781 C 144.777344 202.464844 144.839844 202.554688 145.117188 202.539062 C 145.179688 202.539062 145.242188 202.535156 145.304688 202.535156 Z M 154.082031 207.195312 C 153.296875 207.195312 152.597656 207.097656 152.078125 206.890625 C 151.082031 206.488281 150.140625 205.867188 149.230469 205.269531 C 147.8125 204.335938 146.472656 203.464844 145.164062 203.523438 C 144.460938 203.5625 144.101562 203.234375 143.921875 202.957031 C 143.085938 201.640625 144.71875 198.386719 145.054688 197.746094 C 145.109375 197.636719 145.207031 197.554688 145.324219 197.511719 C 145.523438 197.441406 150.285156 195.773438 153.707031 196.738281 C 153.878906 196.789062 154.007812 196.925781 154.050781 197.097656 C 154.054688 197.117188 154.519531 198.988281 155.765625 199.789062 C 156.179688 200.058594 156.84375 200.296875 157.542969 200.550781 C 159.179688 201.144531 161.03125 201.816406 161.558594 203.382812 C 161.695312 203.785156 161.703125 204.40625 160.984375 205.082031 C 159.683594 206.308594 156.480469 207.195312 154.082031 207.195312 " fill-opacity="1" fill-rule="nonzero"/><path fill="#052a6e" d="M 112.769531 171.675781 L 118.332031 184.53125 C 119.480469 187.1875 121.722656 189.21875 124.476562 190.101562 L 145.824219 196.953125 L 145.320312 204.371094 C 145.320312 204.371094 117.285156 201.738281 112.433594 198.160156 C 107.894531 194.8125 102.191406 179.363281 102.191406 179.363281 L 112.769531 171.675781 " fill-opacity="1" fill-rule="nonzero"/><path fill="#000000" d="M 145.824219 197.445312 C 145.773438 197.445312 145.722656 197.4375 145.671875 197.421875 L 124.328125 190.570312 C 121.4375 189.644531 119.085938 187.511719 117.878906 184.726562 L 112.316406 171.871094 C 112.207031 171.621094 112.324219 171.332031 112.570312 171.226562 C 112.820312 171.117188 113.109375 171.230469 113.21875 171.480469 L 118.78125 184.332031 C 119.878906 186.863281 122.007812 188.792969 124.628906 189.632812 L 145.972656 196.484375 C 146.230469 196.566406 146.375 196.84375 146.292969 197.101562 C 146.222656 197.3125 146.03125 197.445312 145.824219 197.445312 " fill-opacity="1" fill-rule="nonzero"/><path fill="#000000" d="M 138.769531 204.15625 C 138.75 204.15625 138.730469 204.15625 138.710938 204.152344 C 128.402344 202.933594 115.425781 200.976562 112.140625 198.558594 C 110.683594 197.480469 108.984375 195.140625 107.09375 191.59375 C 106.964844 191.355469 107.054688 191.058594 107.292969 190.929688 C 107.535156 190.800781 107.832031 190.890625 107.960938 191.132812 C 109.785156 194.546875 111.386719 196.777344 112.726562 197.765625 C 115.152344 199.550781 124.421875 201.472656 138.824219 203.171875 C 139.097656 203.207031 139.289062 203.449219 139.257812 203.71875 C 139.226562 203.96875 139.015625 204.15625 138.769531 204.15625 " fill-opacity="1" fill-rule="nonzero"/><path fill="#000000" d="M 312.589844 102.160156 C 312.589844 120.167969 298 134.761719 280 134.761719 C 262 134.761719 247.410156 120.167969 247.410156 102.160156 C 247.410156 84.152344 262 69.558594 280 69.558594 C 298 69.558594 312.589844 84.152344 312.589844 102.160156 " fill-opacity="1" fill-rule="nonzero"/><path fill="#000000" d="M 280 70.050781 C 262.300781 70.050781 247.902344 84.453125 247.902344 102.160156 C 247.902344 119.867188 262.300781 134.273438 280 134.273438 C 297.699219 134.273438 312.097656 119.867188 312.097656 102.160156 C 312.097656 84.453125 297.699219 70.050781 280 70.050781 Z M 280 135.253906 C 261.757812 135.253906 246.917969 120.410156 246.917969 102.160156 C 246.917969 83.910156 261.757812 69.0625 280 69.0625 C 298.242188 69.0625 313.082031 83.910156 313.082031 102.160156 C 313.082031 120.410156 298.242188 135.253906 280 135.253906 " fill-opacity="1" fill-rule="nonzero"/><path fill="#052a6e" d="M 308.574219 102.160156 C 308.574219 120.167969 293.984375 134.761719 275.984375 134.761719 C 257.984375 134.761719 243.394531 120.167969 243.394531 102.160156 C 243.394531 84.152344 257.984375 69.558594 275.984375 69.558594 C 293.984375 69.558594 308.574219 84.152344 308.574219 102.160156 " fill-opacity="1" fill-rule="nonzero"/><path fill="#000000" d="M 275.984375 70.050781 C 258.285156 70.050781 243.886719 84.453125 243.886719 102.160156 C 243.886719 119.867188 258.285156 134.273438 275.984375 134.273438 C 293.683594 134.273438 308.082031 119.867188 308.082031 102.160156 C 308.082031 84.453125 293.683594 70.050781 275.984375 70.050781 Z M 275.984375 135.253906 C 257.742188 135.253906 242.902344 120.410156 242.902344 102.160156 C 242.902344 83.910156 257.742188 69.0625 275.984375 69.0625 C 294.226562 69.0625 309.066406 83.910156 309.066406 102.160156 C 309.066406 120.410156 294.226562 135.253906 275.984375 135.253906 " fill-opacity="1" fill-rule="nonzero"/><path fill="#ffffff" d="M 297.710938 102.160156 C 297.710938 114.164062 287.984375 123.894531 275.984375 123.894531 C 263.984375 123.894531 254.257812 114.164062 254.257812 102.160156 C 254.257812 90.15625 263.984375 80.425781 275.984375 80.425781 C 287.984375 80.425781 297.710938 90.15625 297.710938 102.160156 " fill-opacity="1" fill-rule="nonzero"/><path fill="#052a6e" d="M 286.847656 102.160156 C 286.847656 108.160156 281.984375 113.027344 275.984375 113.027344 C 269.984375 113.027344 265.121094 108.160156 265.121094 102.160156 C 265.121094 96.160156 269.984375 91.292969 275.984375 91.292969 C 281.984375 91.292969 286.847656 96.160156 286.847656 102.160156 " fill-opacity="1" fill-rule="nonzero"/><path fill="#ffffff" d="M 275.636719 102.554688 L 281.222656 96.292969 L 282.058594 97.128906 L 275.800781 102.714844 C 275.691406 102.8125 275.539062 102.660156 275.636719 102.554688 " fill-opacity="1" fill-rule="nonzero"/><path fill="#000000" d="M 281.242188 97.007812 L 280.429688 97.925781 L 281.339844 97.105469 Z M 275.636719 102.554688 L 275.640625 102.554688 Z M 275.722656 103.238281 C 275.570312 103.238281 275.414062 103.179688 275.292969 103.058594 C 275.0625 102.828125 275.050781 102.46875 275.269531 102.226562 L 280.855469 95.964844 C 280.945312 95.863281 281.074219 95.804688 281.210938 95.800781 C 281.34375 95.785156 281.476562 95.847656 281.570312 95.945312 L 282.40625 96.777344 C 282.503906 96.875 282.554688 97.003906 282.550781 97.140625 C 282.546875 97.277344 282.488281 97.40625 282.386719 97.492188 L 276.128906 103.082031 C 276.011719 103.1875 275.867188 103.238281 275.722656 103.238281 " fill-opacity="1" fill-rule="nonzero"/><path fill="#ffffff" d="M 281.253906 97.175781 L 281.179688 97.09375 C 280.875 96.792969 280.875 96.300781 281.179688 96.003906 L 283.515625 93.660156 L 284.6875 94.832031 L 282.347656 97.175781 C 282.046875 97.472656 281.558594 97.472656 281.253906 97.175781 " fill-opacity="1" fill-rule="nonzero"/><path fill="#000000" d="M 283.515625 94.355469 L 281.523438 96.347656 C 281.414062 96.460938 281.414062 96.636719 281.523438 96.746094 L 281.605469 96.824219 C 281.714844 96.933594 281.890625 96.933594 282 96.824219 L 283.992188 94.832031 Z M 281.800781 97.890625 C 281.480469 97.890625 281.152344 97.769531 280.90625 97.519531 L 280.828125 97.441406 C 280.335938 96.949219 280.335938 96.144531 280.828125 95.652344 L 283.167969 93.3125 C 283.359375 93.121094 283.671875 93.121094 283.867188 93.3125 L 285.039062 94.484375 C 285.128906 94.574219 285.179688 94.703125 285.179688 94.832031 C 285.179688 94.960938 285.128906 95.085938 285.039062 95.179688 L 282.695312 97.519531 C 282.449219 97.769531 282.125 97.890625 281.800781 97.890625 " fill-opacity="1" fill-rule="nonzero"/><path fill="#ffffff" d="M 282.957031 95.527344 L 282.824219 95.394531 C 282.304688 94.875 282.304688 94.035156 282.824219 93.519531 L 309.789062 66.542969 C 310.304688 66.023438 311.144531 66.023438 311.660156 66.542969 L 311.792969 66.675781 C 312.3125 67.195312 312.3125 68.035156 311.792969 68.550781 L 284.832031 95.527344 C 284.3125 96.046875 283.472656 96.046875 282.957031 95.527344 " fill-opacity="1" fill-rule="nonzero"/><path fill="#000000" d="M 310.722656 66.648438 C 310.5 66.648438 310.292969 66.734375 310.136719 66.890625 L 283.171875 93.867188 C 282.847656 94.191406 282.847656 94.71875 283.171875 95.042969 L 283.304688 95.179688 C 283.617188 95.496094 284.167969 95.496094 284.480469 95.179688 L 311.445312 68.203125 C 311.605469 68.046875 311.691406 67.835938 311.691406 67.617188 C 311.691406 67.390625 311.605469 67.183594 311.445312 67.027344 L 311.3125 66.890625 C 311.15625 66.734375 310.945312 66.648438 310.722656 66.648438 Z M 283.894531 96.410156 C 283.410156 96.410156 282.953125 96.21875 282.609375 95.875 L 282.472656 95.742188 C 281.765625 95.03125 281.765625 93.878906 282.472656 93.171875 L 309.4375 66.195312 C 309.78125 65.851562 310.238281 65.664062 310.722656 65.664062 C 311.210938 65.664062 311.664062 65.851562 312.007812 66.195312 L 312.144531 66.332031 C 312.488281 66.671875 312.675781 67.128906 312.675781 67.617188 C 312.675781 68.101562 312.488281 68.554688 312.144531 68.898438 L 285.179688 95.875 C 284.835938 96.21875 284.378906 96.410156 283.894531 96.410156 " fill-opacity="1" fill-rule="nonzero"/><path fill="#052a6e" d="M 301.878906 74.453125 L 301.046875 70.414062 C 300.71875 68.824219 301.214844 67.171875 302.363281 66.023438 L 307.511719 60.875 C 307.699219 60.6875 308.019531 60.78125 308.074219 61.042969 L 309.304688 67.027344 L 301.878906 74.453125 " fill-opacity="1" fill-rule="nonzero"/><path fill="#000000" d="M 307.648438 61.433594 L 302.710938 66.371094 C 301.675781 67.40625 301.234375 68.882812 301.53125 70.316406 L 302.175781 73.460938 L 308.765625 66.867188 Z M 301.878906 74.945312 C 301.832031 74.945312 301.785156 74.9375 301.738281 74.925781 C 301.566406 74.875 301.433594 74.730469 301.398438 74.554688 L 300.566406 70.515625 C 300.203125 68.753906 300.746094 66.945312 302.015625 65.675781 L 307.164062 60.523438 C 307.378906 60.3125 307.691406 60.230469 307.984375 60.316406 C 308.273438 60.40625 308.492188 60.644531 308.554688 60.941406 L 309.785156 66.925781 C 309.820312 67.089844 309.769531 67.257812 309.652344 67.375 L 302.226562 74.800781 C 302.132812 74.894531 302.007812 74.945312 301.878906 74.945312 " fill-opacity="1" fill-rule="nonzero"/><path fill="#052a6e" d="M 303.886719 76.460938 L 307.925781 77.292969 C 309.515625 77.621094 311.167969 77.128906 312.316406 75.980469 L 317.460938 70.828125 C 317.648438 70.640625 317.554688 70.320312 317.292969 70.265625 L 311.3125 69.035156 L 303.886719 76.460938 " fill-opacity="1" fill-rule="nonzero"/><path fill="#000000" d="M 304.882812 76.164062 L 308.023438 76.8125 C 309.460938 77.105469 310.929688 76.664062 311.96875 75.628906 L 316.902344 70.691406 L 311.472656 69.570312 Z M 308.90625 77.886719 C 308.546875 77.886719 308.1875 77.847656 307.824219 77.777344 L 303.789062 76.945312 C 303.609375 76.910156 303.46875 76.777344 303.414062 76.605469 C 303.363281 76.429688 303.410156 76.242188 303.539062 76.113281 L 310.964844 68.6875 C 311.082031 68.570312 311.25 68.519531 311.410156 68.554688 L 317.394531 69.785156 C 317.691406 69.847656 317.929688 70.0625 318.015625 70.355469 C 318.105469 70.648438 318.023438 70.960938 317.8125 71.175781 L 312.664062 76.328125 C 311.652344 77.335938 310.300781 77.886719 308.90625 77.886719 " fill-opacity="1" fill-rule="nonzero"/><path fill="#ffffff" d="M 310.472656 71.128906 L 315.335938 72.039062 L 310.472656 71.128906 " fill-opacity="1" fill-rule="nonzero"/><path fill="#000000" d="M 315.335938 72.535156 C 315.308594 72.535156 315.277344 72.53125 315.246094 72.523438 L 310.382812 71.613281 C 310.113281 71.5625 309.9375 71.304688 309.988281 71.039062 C 310.039062 70.773438 310.296875 70.597656 310.5625 70.648438 L 315.425781 71.554688 C 315.695312 71.605469 315.871094 71.863281 315.820312 72.132812 C 315.777344 72.367188 315.570312 72.535156 315.335938 72.535156 " fill-opacity="1" fill-rule="nonzero"/><path fill="#ffffff" d="M 308.496094 73.109375 L 313.359375 74.015625 L 308.496094 73.109375 " fill-opacity="1" fill-rule="nonzero"/><path fill="#000000" d="M 313.359375 74.511719 C 313.328125 74.511719 313.300781 74.507812 313.269531 74.5 L 308.40625 73.589844 C 308.136719 73.542969 307.960938 73.285156 308.011719 73.015625 C 308.0625 72.75 308.316406 72.574219 308.585938 72.625 L 313.449219 73.535156 C 313.71875 73.585938 313.894531 73.84375 313.84375 74.109375 C 313.800781 74.34375 313.59375 74.511719 313.359375 74.511719 " fill-opacity="1" fill-rule="nonzero"/><path fill="#ffffff" d="M 301.09375 76.246094 L 302.097656 77.25 L 301.09375 76.246094 " fill-opacity="1" fill-rule="nonzero"/><path fill="#000000" d="M 302.097656 77.742188 C 301.96875 77.742188 301.84375 77.695312 301.746094 77.597656 L 300.746094 76.59375 C 300.550781 76.402344 300.550781 76.089844 300.746094 75.898438 C 300.9375 75.707031 301.25 75.707031 301.441406 75.898438 L 302.445312 76.902344 C 302.636719 77.09375 302.636719 77.40625 302.445312 77.597656 C 302.347656 77.695312 302.222656 77.742188 302.097656 77.742188 " fill-opacity="1" fill-rule="nonzero"/><path fill="#ffffff" d="M 302.253906 75.085938 L 303.257812 76.089844 L 302.253906 75.085938 " fill-opacity="1" fill-rule="nonzero"/><path fill="#000000" d="M 303.257812 76.582031 C 303.128906 76.582031 303.003906 76.535156 302.90625 76.4375 L 301.90625 75.433594 C 301.714844 75.242188 301.714844 74.929688 301.90625 74.738281 C 302.097656 74.542969 302.410156 74.542969 302.601562 74.738281 L 303.605469 75.738281 C 303.796875 75.933594 303.796875 76.246094 303.605469 76.4375 C 303.507812 76.535156 303.382812 76.582031 303.257812 76.582031 " fill-opacity="1" fill-rule="nonzero"/><path fill="#ffffff" d="M 303.414062 73.925781 L 304.417969 74.925781 L 303.414062 73.925781 " fill-opacity="1" fill-rule="nonzero"/><path fill="#000000" d="M 304.417969 75.421875 C 304.292969 75.421875 304.167969 75.371094 304.070312 75.277344 L 303.066406 74.273438 C 302.875 74.082031 302.875 73.769531 303.066406 73.574219 C 303.257812 73.382812 303.570312 73.382812 303.761719 73.574219 L 304.765625 74.578125 C 304.957031 74.769531 304.957031 75.082031 304.765625 75.277344 C 304.667969 75.371094 304.542969 75.421875 304.417969 75.421875 " fill-opacity="1" fill-rule="nonzero"/><path fill="#ffffff" d="M 249.90625 301.085938 L 248.96875 310.085938 L 242.925781 310.800781 L 242.925781 300.125 L 249.90625 301.085938 " fill-opacity="1" fill-rule="nonzero"/><path fill="#000000" d="M 243.417969 300.691406 L 243.417969 310.246094 L 248.519531 309.644531 L 249.367188 301.507812 Z M 242.925781 311.292969 C 242.808594 311.292969 242.691406 311.25 242.601562 311.167969 C 242.496094 311.074219 242.433594 310.941406 242.433594 310.800781 L 242.433594 300.125 C 242.433594 299.984375 242.496094 299.847656 242.601562 299.753906 C 242.710938 299.660156 242.851562 299.621094 242.992188 299.636719 L 249.972656 300.597656 C 250.238281 300.632812 250.425781 300.871094 250.394531 301.136719 L 249.457031 310.140625 C 249.433594 310.367188 249.253906 310.550781 249.027344 310.578125 L 242.984375 311.289062 C 242.964844 311.292969 242.945312 311.292969 242.925781 311.292969 " fill-opacity="1" fill-rule="nonzero"/><path fill="#052a6e" d="M 241.976562 326.472656 C 244.492188 326.832031 248.625 327.144531 253.472656 326.46875 C 255.058594 326.246094 256.109375 324.695312 255.730469 323.128906 C 254.660156 318.757812 252.820312 310.464844 249.664062 306.621094 L 248.878906 308.707031 L 247.800781 306.746094 C 247.648438 306.476562 247.382812 306.292969 247.082031 306.253906 L 244.710938 305.953125 C 244.214844 305.886719 243.753906 306.21875 243.648438 306.710938 L 243.273438 308.519531 L 241.828125 306.148438 L 241.183594 315.003906 C 241.046875 316.898438 240.761719 318.78125 240.332031 320.632812 L 239.6875 323.425781 C 239.492188 324.902344 240.511719 326.265625 241.976562 326.472656 " fill-opacity="1" fill-rule="nonzero"/><path fill="#000000" d="M 240.171875 323.511719 C 240.027344 324.710938 240.863281 325.816406 242.042969 325.984375 C 244.605469 326.347656 248.65625 326.644531 253.40625 325.980469 C 254.023438 325.894531 254.578125 325.546875 254.929688 325.027344 C 255.285156 324.507812 255.398438 323.855469 255.25 323.246094 L 255.023438 322.296875 C 254.015625 318.136719 252.378906 311.347656 249.8125 307.636719 L 249.34375 308.878906 C 249.273438 309.058594 249.109375 309.183594 248.917969 309.199219 C 248.726562 309.214844 248.542969 309.113281 248.449219 308.945312 L 247.367188 306.980469 C 247.296875 306.851562 247.164062 306.761719 247.019531 306.746094 L 244.648438 306.441406 C 244.410156 306.40625 244.183594 306.574219 244.132812 306.8125 L 243.753906 308.621094 C 243.714844 308.820312 243.554688 308.96875 243.355469 309.003906 C 243.15625 309.039062 242.957031 308.949219 242.851562 308.777344 L 242.207031 307.714844 L 241.675781 315.039062 C 241.535156 316.953125 241.246094 318.875 240.8125 320.746094 Z M 247.6875 327.359375 C 245.367188 327.359375 243.394531 327.171875 241.90625 326.960938 C 240.183594 326.71875 238.96875 325.101562 239.199219 323.363281 C 239.199219 323.347656 239.203125 323.332031 239.207031 323.316406 L 239.851562 320.523438 C 240.277344 318.703125 240.558594 316.832031 240.695312 314.96875 L 241.335938 306.113281 C 241.351562 305.898438 241.503906 305.722656 241.710938 305.671875 C 241.917969 305.621094 242.136719 305.710938 242.246094 305.890625 L 243.046875 307.203125 L 243.167969 306.613281 C 243.324219 305.875 244.027344 305.367188 244.773438 305.464844 L 247.140625 305.765625 C 247.597656 305.824219 248.003906 306.101562 248.230469 306.507812 L 248.796875 307.535156 L 249.207031 306.449219 C 249.265625 306.285156 249.414062 306.164062 249.585938 306.136719 C 249.757812 306.109375 249.933594 306.175781 250.046875 306.308594 C 253.058594 309.976562 254.886719 317.546875 255.980469 322.066406 L 256.207031 323.011719 C 256.421875 323.894531 256.253906 324.832031 255.742188 325.582031 C 255.234375 326.332031 254.433594 326.832031 253.542969 326.957031 C 251.433594 327.25 249.460938 327.359375 247.6875 327.359375 " fill-opacity="1" fill-rule="nonzero"/><path fill="#000000" d="M 247.503906 324.683594 C 244.40625 324.683594 242.519531 324.019531 242.40625 323.980469 C 242.148438 323.886719 242.015625 323.605469 242.109375 323.347656 C 242.203125 323.09375 242.484375 322.960938 242.742188 323.054688 C 242.796875 323.074219 246.757812 324.445312 252.589844 323.105469 C 252.851562 323.046875 253.117188 323.210938 253.175781 323.476562 C 253.238281 323.742188 253.074219 324.007812 252.808594 324.066406 C 250.796875 324.527344 249.003906 324.683594 247.503906 324.683594 " fill-opacity="1" fill-rule="nonzero"/><path fill="#000000" d="M 250.417969 317.769531 C 250.410156 317.769531 250.40625 317.769531 250.402344 317.769531 L 244.738281 317.578125 C 244.464844 317.570312 244.253906 317.34375 244.261719 317.074219 C 244.269531 316.800781 244.496094 316.574219 244.769531 316.597656 L 250.433594 316.785156 C 250.707031 316.792969 250.917969 317.019531 250.910156 317.292969 C 250.902344 317.558594 250.683594 317.769531 250.417969 317.769531 " fill-opacity="1" fill-rule="nonzero"/><path fill="#ffffff" d="M 221.605469 296.292969 L 220.703125 309.429688 L 213.433594 309.429688 L 213.09375 296.292969 L 221.605469 296.292969 " fill-opacity="1" fill-rule="nonzero"/><path fill="#000000" d="M 213.910156 308.9375 L 220.242188 308.9375 L 221.078125 296.785156 L 213.597656 296.785156 Z M 220.703125 309.921875 L 213.433594 309.921875 C 213.164062 309.921875 212.945312 309.707031 212.9375 309.441406 L 212.601562 296.304688 C 212.597656 296.171875 212.648438 296.042969 212.742188 295.949219 C 212.832031 295.851562 212.960938 295.796875 213.09375 295.796875 L 221.605469 295.796875 C 221.742188 295.796875 221.875 295.855469 221.96875 295.957031 C 222.058594 296.054688 222.105469 296.191406 222.097656 296.324219 L 221.191406 309.460938 C 221.175781 309.71875 220.960938 309.921875 220.703125 309.921875 " fill-opacity="1" fill-rule="nonzero"/><path fill="#052a6e" d="M 222.601562 316.847656 C 222.617188 318.085938 221.777344 319.179688 220.574219 319.460938 C 216.394531 320.441406 206.980469 322.621094 204.292969 323.027344 C 200.808594 323.550781 196.523438 322.472656 194.683594 320.417969 C 192.839844 318.363281 198.804688 313.460938 201.636719 311.675781 C 205.84375 309.027344 209.886719 303.785156 211.578125 303.550781 C 213.273438 303.3125 216.4375 308.265625 216.4375 308.265625 L 221.605469 306.078125 C 221.605469 306.078125 222.507812 310.542969 222.601562 316.847656 " fill-opacity="1" fill-rule="nonzero"/><path fill="#000000" d="M 211.710938 304.03125 C 211.6875 304.03125 211.667969 304.035156 211.648438 304.039062 C 210.957031 304.132812 209.390625 305.628906 207.878906 307.078125 C 206.078125 308.796875 204.039062 310.742188 201.902344 312.09375 C 199.117188 313.847656 195.117188 317.324219 194.84375 319.296875 C 194.796875 319.628906 194.859375 319.882812 195.046875 320.089844 C 196.714844 321.949219 200.832031 323.046875 204.222656 322.539062 C 206.902344 322.136719 216.472656 319.917969 220.460938 318.984375 C 221.429688 318.753906 222.125 317.859375 222.109375 316.851562 C 222.035156 311.980469 221.472656 308.183594 221.230469 306.773438 L 216.628906 308.71875 C 216.40625 308.8125 216.152344 308.734375 216.019531 308.53125 C 214.617188 306.332031 212.601562 304.03125 211.710938 304.03125 Z M 202.476562 323.652344 C 199.238281 323.652344 195.898438 322.511719 194.316406 320.75 C 193.9375 320.324219 193.78125 319.773438 193.867188 319.160156 C 194.234375 316.535156 199.085938 312.703125 201.375 311.257812 C 203.433594 309.964844 205.433594 308.050781 207.199219 306.363281 C 209.117188 304.527344 210.503906 303.203125 211.511719 303.0625 C 213.234375 302.820312 215.738281 306.324219 216.625 307.652344 L 221.414062 305.625 C 221.550781 305.566406 221.707031 305.574219 221.835938 305.644531 C 221.96875 305.710938 222.058594 305.835938 222.089844 305.980469 C 222.097656 306.027344 223 310.5625 223.09375 316.839844 C 223.113281 318.304688 222.101562 319.609375 220.6875 319.941406 C 216.683594 320.878906 207.085938 323.105469 204.367188 323.511719 C 203.75 323.605469 203.113281 323.652344 202.476562 323.652344 " fill-opacity="1" fill-rule="nonzero"/><path fill="#000000" d="M 202.523438 320.425781 C 200.226562 320.425781 198.171875 320.050781 196.6875 319.074219 C 196.460938 318.925781 196.398438 318.621094 196.546875 318.394531 C 196.695312 318.164062 197 318.101562 197.226562 318.25 C 202.570312 321.757812 216.890625 316.542969 219.710938 315.457031 C 219.964844 315.363281 220.246094 315.488281 220.34375 315.742188 C 220.441406 315.996094 220.316406 316.28125 220.0625 316.378906 C 217.074219 317.527344 208.878906 320.425781 202.523438 320.425781 " fill-opacity="1" fill-rule="nonzero"/><path fill="#000000" d="M 210.601562 313.28125 C 210.476562 313.28125 210.351562 313.234375 210.257812 313.140625 L 207.246094 310.191406 C 207.050781 310 207.046875 309.6875 207.238281 309.492188 C 207.429688 309.296875 207.742188 309.292969 207.933594 309.484375 L 210.945312 312.4375 C 211.140625 312.628906 211.140625 312.941406 210.953125 313.132812 C 210.855469 313.234375 210.730469 313.28125 210.601562 313.28125 " fill-opacity="1" fill-rule="nonzero"/><path fill="#000000" d="M 250.140625 198.734375 C 250.140625 198.734375 254.21875 251.714844 255.398438 265.894531 C 256.578125 280.070312 251.371094 302.792969 251.371094 302.792969 L 241.421875 302.265625 C 241.421875 302.265625 240.863281 282.222656 240.183594 271.492188 C 240.011719 268.742188 239.648438 262.289062 238.636719 259.726562 C 237.121094 255.890625 234.816406 249.402344 233.90625 243.378906 C 232.5 234.074219 227.714844 219.382812 227.714844 219.382812 C 227.714844 219.382812 222.644531 296.5 222.273438 302.261719 C 222.273438 302.261719 215.015625 302.957031 211.859375 300.957031 C 211.859375 300.957031 205.910156 270.140625 206.710938 255.589844 C 207.515625 241.039062 207.824219 197.355469 207.824219 197.355469 L 250.140625 198.734375 " fill-opacity="1" fill-rule="nonzero"/><path fill="#052a6e" d="M 246.917969 210.625 C 245.90625 210.625 244.953125 210.375 244.105469 209.878906 C 242.535156 208.960938 241.394531 207.253906 240.886719 205.066406 C 240.824219 204.800781 240.992188 204.539062 241.257812 204.476562 C 241.519531 204.414062 241.785156 204.582031 241.847656 204.84375 C 242.292969 206.765625 243.269531 208.25 244.597656 209.027344 C 245.742188 209.695312 247.117188 209.820312 248.582031 209.390625 C 248.84375 209.3125 249.117188 209.460938 249.195312 209.722656 C 249.269531 209.984375 249.121094 210.257812 248.859375 210.332031 C 248.195312 210.53125 247.546875 210.625 246.917969 210.625 " fill-opacity="1" fill-rule="nonzero"/><path fill="#052a6e" d="M 209.929688 208.390625 C 209.675781 208.390625 209.460938 208.195312 209.441406 207.9375 C 209.417969 207.667969 209.617188 207.429688 209.890625 207.40625 C 214.515625 207.023438 215.570312 205.046875 215.78125 201.980469 C 215.800781 201.710938 216.035156 201.503906 216.304688 201.523438 C 216.578125 201.542969 216.78125 201.777344 216.761719 202.050781 C 216.480469 206.175781 214.515625 208.011719 209.972656 208.390625 C 209.957031 208.390625 209.941406 208.390625 209.929688 208.390625 " fill-opacity="1" fill-rule="nonzero"/><path fill="#052a6e" d="M 227.875 138.644531 C 233.617188 138.582031 237.589844 139.449219 240.433594 140.070312 C 243.914062 140.828125 245.265625 141.21875 250.214844 143.015625 C 261.6875 147.175781 267.523438 154.332031 271.203125 152.269531 C 272.046875 151.792969 272.816406 150.953125 273.378906 149.523438 C 280.34375 152.867188 287.03125 150.472656 290.582031 148.609375 C 290.75 149.464844 290.890625 150.339844 290.988281 151.242188 C 291.277344 153.847656 292.183594 158.613281 289.792969 162.738281 C 280.78125 178.292969 265.144531 168.683594 248.472656 166.503906 L 227.875 138.644531 " fill-opacity="1" fill-rule="nonzero"/><path fill="#052a6e" d="M 249.238281 148.777344 C 250.96875 160.203125 255.046875 188.761719 254.371094 200.699219 C 254.285156 202.234375 252.828125 203.316406 251.332031 202.972656 C 243.96875 201.28125 223.160156 197 208.347656 198.835938 C 206.238281 199.097656 204.445312 197.304688 204.695312 195.191406 C 205.769531 186.078125 207.988281 164.757812 206.988281 150.6875 C 206.707031 146.6875 209.199219 143.058594 212.984375 141.988281 C 219.972656 140.003906 231.527344 138.101562 243.550781 141.996094 C 246.554688 142.972656 248.753906 145.609375 249.238281 148.777344 " fill-opacity="1" fill-rule="nonzero"/><path fill="#ffffff" d="M 272.90625 130.863281 C 271.125 128.941406 270.453125 123.605469 271.4375 120.75 C 272.199219 118.542969 274.550781 113.09375 275.617188 110.644531 C 275.957031 109.867188 277.050781 109.835938 277.4375 110.59375 C 278.636719 112.945312 277.441406 116.90625 277.441406 116.90625 C 282.21875 119.589844 281.324219 125.5625 278.859375 128.921875 C 282.632812 132.316406 288.671875 138.972656 290.582031 148.609375 C 287.03125 150.472656 280.34375 152.867188 273.378906 149.523438 C 274.550781 146.550781 274.808594 141.011719 272.90625 130.863281 " fill-opacity="1" fill-rule="nonzero"/><path fill="#000000" d="M 273.996094 149.269531 C 280.464844 152.167969 286.671875 150.035156 290.023438 148.34375 C 288.15625 139.464844 282.757812 133.089844 278.527344 129.285156 C 278.339844 129.117188 278.3125 128.835938 278.460938 128.628906 C 280.023438 126.503906 280.710938 123.648438 280.21875 121.359375 C 279.839844 119.601562 278.824219 118.246094 277.199219 117.335938 C 277 117.222656 276.902344 116.984375 276.972656 116.761719 C 276.980469 116.726562 278.09375 112.960938 277 110.816406 C 276.90625 110.632812 276.726562 110.515625 276.523438 110.535156 C 276.320312 110.542969 276.152344 110.65625 276.070312 110.84375 C 275.070312 113.132812 272.664062 118.703125 271.902344 120.910156 C 270.945312 123.6875 271.671875 128.808594 273.265625 130.527344 C 273.328125 130.59375 273.371094 130.679688 273.386719 130.769531 C 275.011719 139.433594 275.214844 145.652344 273.996094 149.269531 Z M 280.714844 151.683594 C 278.335938 151.683594 275.769531 151.21875 273.167969 149.96875 C 272.933594 149.855469 272.824219 149.585938 272.921875 149.34375 C 274.238281 145.992188 274.078125 139.851562 272.445312 131.085938 C 270.511719 128.839844 270 123.40625 270.972656 120.589844 C 271.742188 118.347656 274.164062 112.75 275.167969 110.449219 C 275.402344 109.914062 275.910156 109.570312 276.492188 109.550781 C 277.082031 109.542969 277.605469 109.847656 277.875 110.367188 C 278.941406 112.457031 278.289062 115.59375 278.015625 116.671875 C 279.679688 117.71875 280.773438 119.257812 281.179688 121.152344 C 281.703125 123.574219 281.046875 126.550781 279.511719 128.847656 C 283.855469 132.835938 289.257812 139.410156 291.066406 148.511719 C 291.105469 148.726562 291.003906 148.945312 290.808594 149.046875 C 288.578125 150.21875 284.9375 151.683594 280.714844 151.683594 " fill-opacity="1" fill-rule="nonzero"/><path fill="#000000" d="M 276.113281 129.40625 C 276 129.40625 275.882812 129.363281 275.785156 129.277344 C 275.585938 129.097656 275.570312 128.785156 275.75 128.582031 C 275.769531 128.5625 277.679688 126.402344 276.683594 125.046875 C 275.621094 123.601562 275.601562 123.265625 275.992188 122.335938 C 276.066406 122.160156 276.152344 121.957031 276.234375 121.699219 C 276.480469 120.949219 276.414062 120.179688 276.046875 119.414062 C 275.917969 119.144531 275.660156 119.128906 275.578125 119.132812 C 275.5 119.132812 275.242188 119.164062 275.121094 119.433594 L 274.003906 123.128906 C 273.925781 123.390625 273.652344 123.535156 273.390625 123.457031 C 273.132812 123.378906 272.984375 123.105469 273.0625 122.84375 L 274.183594 119.121094 C 274.1875 119.109375 274.195312 119.09375 274.199219 119.078125 C 274.429688 118.519531 274.945312 118.164062 275.550781 118.148438 C 276.144531 118.128906 276.675781 118.453125 276.933594 118.988281 C 277.414062 119.992188 277.496094 121.007812 277.171875 122.003906 C 277.074219 122.300781 276.976562 122.53125 276.898438 122.714844 C 276.664062 123.285156 276.644531 123.332031 277.476562 124.460938 C 278.949219 126.460938 276.582031 129.128906 276.480469 129.242188 C 276.382812 129.347656 276.25 129.40625 276.113281 129.40625 " fill-opacity="1" fill-rule="nonzero"/><path fill="#ffffff" d="M 183.359375 104.683594 L 185.167969 110.484375 C 185.761719 112.28125 185.464844 114.253906 184.363281 115.792969 L 182.335938 118.707031 C 182 119.1875 181.90625 119.769531 181.894531 120.359375 C 181.871094 121.675781 182.070312 123.683594 182.070312 123.683594 L 177.234375 123.761719 C 177.234375 123.761719 177.765625 121.210938 178.011719 120.335938 C 178.324219 119.21875 178.332031 117.992188 177.84375 116.9375 C 176.289062 113.578125 176.746094 110.210938 176.746094 110.210938 L 180.054688 111.09375 C 180.054688 111.09375 181.078125 109.347656 180.886719 106.304688 C 180.839844 105.558594 180.917969 104.992188 181.066406 104.5625 C 181.453125 103.449219 183.066406 103.542969 183.359375 104.683594 " fill-opacity="1" fill-rule="nonzero"/><path fill="#000000" d="M 177.191406 110.835938 C 177.140625 111.90625 177.183594 114.335938 178.289062 116.730469 C 178.789062 117.808594 178.855469 119.132812 178.484375 120.46875 C 178.320312 121.058594 178.015625 122.453125 177.84375 123.261719 L 181.53125 123.199219 C 181.472656 122.503906 181.386719 121.273438 181.402344 120.347656 C 181.414062 119.835938 181.476562 119.074219 181.933594 118.425781 L 183.960938 115.511719 C 184.96875 114.101562 185.246094 112.28125 184.699219 110.640625 L 182.890625 104.832031 C 182.886719 104.824219 182.882812 104.816406 182.882812 104.808594 C 182.785156 104.425781 182.472656 104.28125 182.210938 104.269531 C 182.089844 104.261719 181.6875 104.28125 181.53125 104.722656 C 181.390625 105.132812 181.339844 105.652344 181.378906 106.273438 C 181.578125 109.433594 180.523438 111.265625 180.480469 111.34375 C 180.367188 111.53125 180.140625 111.625 179.929688 111.570312 Z M 177.234375 124.253906 C 177.089844 124.253906 176.949219 124.1875 176.859375 124.074219 C 176.761719 123.960938 176.722656 123.808594 176.753906 123.664062 C 176.777344 123.554688 177.289062 121.085938 177.535156 120.203125 C 177.84375 119.09375 177.796875 118.007812 177.394531 117.144531 C 175.800781 113.695312 176.238281 110.285156 176.257812 110.144531 C 176.277344 110.003906 176.355469 109.878906 176.472656 109.800781 C 176.589844 109.71875 176.734375 109.695312 176.871094 109.734375 L 179.789062 110.511719 C 180.046875 109.894531 180.527344 108.441406 180.394531 106.339844 C 180.347656 105.585938 180.417969 104.933594 180.601562 104.398438 C 180.847656 103.691406 181.492188 103.257812 182.25 103.285156 C 183.007812 103.316406 183.640625 103.824219 183.832031 104.550781 L 185.636719 110.335938 C 186.277344 112.269531 185.953125 114.417969 184.765625 116.082031 L 182.738281 118.988281 C 182.511719 119.3125 182.398438 119.753906 182.386719 120.367188 C 182.363281 121.640625 182.554688 123.613281 182.558594 123.636719 C 182.574219 123.773438 182.527344 123.90625 182.433594 124.011719 C 182.34375 124.113281 182.214844 124.171875 182.078125 124.175781 L 177.246094 124.253906 C 177.242188 124.253906 177.238281 124.253906 177.234375 124.253906 " fill-opacity="1" fill-rule="nonzero"/><path fill="#052a6e" d="M 215.550781 141.316406 C 211.332031 141.785156 198.609375 147.40625 191.195312 139.789062 C 183.777344 132.171875 183.410156 122.046875 183.410156 122.046875 L 176.15625 121.421875 C 176.15625 121.421875 171.164062 133.296875 176.34375 147.136719 C 181.632812 161.265625 207.117188 166.234375 207.117188 166.234375 L 215.550781 141.316406 " fill-opacity="1" fill-rule="nonzero"/><path fill="#ffffff" d="M 290.988281 151.242188 C 290.890625 150.339844 290.75 149.464844 290.582031 148.609375 C 287.03125 150.472656 280.34375 152.867188 273.378906 149.523438 C 272.816406 150.953125 272.046875 151.792969 271.203125 152.269531 C 267.523438 154.332031 261.6875 147.175781 250.214844 143.015625 C 245.265625 141.21875 243.914062 140.828125 240.433594 140.070312 C 237.589844 139.449219 233.617188 138.582031 227.875 138.644531 L 228.679688 139.734375 C 223.707031 139.746094 219.199219 140.453125 215.550781 141.320312 L 215.550781 141.316406 C 211.332031 141.785156 198.609375 147.40625 191.195312 139.789062 C 183.777344 132.171875 183.410156 122.046875 183.410156 122.046875 L 176.15625 121.421875 C 176.15625 121.421875 171.164062 133.296875 176.34375 147.136719 C 181.535156 160.996094 206.148438 166.039062 207.085938 166.226562 C 206.652344 177.460938 205.417969 189.078125 204.695312 195.191406 C 204.445312 197.304688 206.238281 199.097656 208.347656 198.835938 C 223.160156 197.003906 243.96875 201.28125 251.332031 202.972656 C 252.828125 203.316406 254.285156 202.234375 254.371094 200.699219 C 254.792969 193.230469 253.355469 179.25 251.796875 167.03125 C 267.203125 169.855469 281.382812 177.253906 289.792969 162.738281 C 292.183594 158.613281 291.277344 153.847656 290.988281 151.242188 " fill-opacity="1" fill-rule="nonzero"/><path fill="#000000" d="M 216.414062 197.890625 C 229.738281 197.890625 244.777344 200.964844 251.441406 202.492188 C 252.015625 202.625 252.617188 202.496094 253.089844 202.144531 C 253.558594 201.789062 253.84375 201.253906 253.878906 200.671875 C 254.222656 194.578125 253.332031 182.96875 251.308594 167.09375 C 251.289062 166.9375 251.34375 166.78125 251.457031 166.675781 C 251.570312 166.566406 251.726562 166.519531 251.882812 166.546875 C 254.855469 167.089844 257.785156 167.808594 260.621094 168.496094 C 272.5 171.398438 282.757812 173.902344 289.367188 162.492188 C 291.441406 158.914062 290.933594 154.824219 290.601562 152.121094 C 290.5625 151.828125 290.527344 151.550781 290.5 151.296875 C 290.429688 150.65625 290.335938 150 290.21875 149.34375 C 286.65625 151.09375 280.296875 153.152344 273.632812 150.183594 C 273.09375 151.339844 272.355469 152.183594 271.441406 152.699219 C 269.171875 153.972656 266.308594 152.210938 262.351562 149.769531 C 259.152344 147.792969 255.171875 145.335938 250.050781 143.480469 C 245.242188 141.734375 243.878906 141.324219 240.328125 140.550781 C 237.617188 139.960938 233.996094 139.171875 228.847656 139.136719 L 229.074219 139.441406 C 229.183594 139.589844 229.203125 139.789062 229.117188 139.957031 C 229.035156 140.121094 228.867188 140.226562 228.679688 140.226562 C 224.410156 140.234375 220.027344 140.765625 215.664062 141.800781 C 215.625 141.808594 215.585938 141.8125 215.546875 141.8125 C 214.734375 141.910156 213.558594 142.210938 212.203125 142.554688 C 206.503906 144 196.960938 146.421875 190.839844 140.136719 C 184.164062 133.273438 183.105469 124.5625 182.945312 122.503906 L 176.480469 121.945312 C 175.746094 123.949219 172.230469 134.746094 176.808594 146.964844 C 181.886719 160.539062 206.152344 165.539062 207.183594 165.746094 C 207.417969 165.792969 207.585938 166.003906 207.578125 166.246094 C 207.140625 177.550781 205.890625 189.269531 205.183594 195.25 C 205.082031 196.109375 205.375 196.949219 205.988281 197.558594 C 206.597656 198.167969 207.433594 198.453125 208.289062 198.347656 C 210.855469 198.027344 213.597656 197.890625 216.414062 197.890625 Z M 251.890625 203.527344 C 251.667969 203.527344 251.445312 203.503906 251.222656 203.453125 C 243.199219 201.609375 222.96875 197.519531 208.410156 199.324219 C 207.253906 199.46875 206.117188 199.078125 205.292969 198.257812 C 204.464844 197.433594 204.066406 196.292969 204.207031 195.132812 C 204.902344 189.242188 206.128906 177.765625 206.578125 166.621094 C 203.136719 165.878906 180.851562 160.578125 175.882812 147.3125 C 170.691406 133.445312 175.652344 121.351562 175.703125 121.230469 C 175.785156 121.035156 175.988281 120.910156 176.199219 120.933594 L 183.453125 121.558594 C 183.703125 121.578125 183.894531 121.78125 183.902344 122.03125 C 183.90625 122.128906 184.355469 132.0625 191.546875 139.445312 C 197.269531 145.328125 206.464844 142.992188 211.960938 141.597656 C 213.382812 141.238281 214.613281 140.925781 215.496094 140.828125 C 219.585938 139.863281 223.691406 139.332031 227.710938 139.253906 L 227.476562 138.9375 C 227.367188 138.789062 227.351562 138.59375 227.433594 138.425781 C 227.515625 138.261719 227.683594 138.15625 227.867188 138.152344 C 233.648438 138.09375 237.613281 138.949219 240.507812 139.582031 C 244.140625 140.371094 245.523438 140.789062 250.382812 142.554688 C 255.601562 144.445312 259.632812 146.929688 262.871094 148.929688 C 266.539062 151.195312 269.191406 152.832031 270.960938 151.839844 C 271.792969 151.371094 272.453125 150.53125 272.921875 149.34375 C 272.96875 149.21875 273.070312 149.117188 273.199219 149.066406 C 273.324219 149.015625 273.46875 149.023438 273.59375 149.082031 C 280.421875 152.359375 287.023438 149.921875 290.351562 148.171875 C 290.492188 148.101562 290.652344 148.097656 290.792969 148.164062 C 290.933594 148.234375 291.035156 148.359375 291.066406 148.511719 C 291.242188 149.410156 291.382812 150.3125 291.480469 151.183594 C 291.507812 151.4375 291.539062 151.710938 291.578125 152 C 291.90625 154.660156 292.460938 159.121094 290.21875 162.988281 C 283.238281 175.03125 272.136719 172.324219 260.386719 169.457031 C 257.777344 168.816406 255.089844 168.160156 252.367188 167.640625 C 254.371094 183.445312 255.210938 194.574219 254.859375 200.726562 C 254.8125 201.601562 254.382812 202.402344 253.679688 202.929688 C 253.160156 203.324219 252.53125 203.527344 251.890625 203.527344 " fill-opacity="1" fill-rule="nonzero"/><path fill="#000000" d="M 230.722656 123.277344 C 230.722656 123.277344 232.023438 118.351562 232.640625 117.40625 C 233.257812 116.460938 233.691406 115.507812 231.101562 114.433594 C 228.507812 113.367188 221.71875 110.484375 218.066406 111.246094 C 214.414062 112.007812 212.316406 114.835938 213.777344 116.277344 C 215.238281 117.71875 215.894531 118.316406 215.050781 118.597656 C 214.203125 118.878906 213.917969 119.945312 216.664062 120.875 C 219.410156 121.808594 229.222656 126.269531 230.722656 123.277344 " fill-opacity="1" fill-rule="nonzero"/><path fill="#ffffff" d="M 221.832031 141.378906 L 221.242188 134.316406 C 217.007812 133.160156 218.015625 130.167969 218.160156 127.910156 C 218.316406 125.484375 219.21875 120.105469 219.21875 120.105469 C 222.746094 121.324219 228.820312 119.527344 228.820312 119.527344 C 228.820312 119.527344 228.21875 121.117188 228.871094 121.714844 C 229.519531 122.308594 229.738281 125.050781 229.738281 125.050781 C 229.738281 125.050781 230.636719 123.789062 231.976562 124.34375 C 232.730469 124.65625 232.355469 126.71875 232.023438 127.902344 C 231.695312 129.082031 230.566406 129.527344 230.566406 129.527344 L 233.574219 140.757812 L 238.15625 142.808594 C 227.453125 149.453125 220.011719 145.601562 217.589844 143.105469 L 221.832031 141.378906 " fill-opacity="1" fill-rule="nonzero"/><path fill="#000000" d="M 218.488281 143.273438 C 221.449219 145.8125 228.09375 148.097656 237.09375 142.871094 L 233.375 141.207031 C 233.238281 141.148438 233.140625 141.027344 233.101562 140.886719 L 230.089844 129.65625 C 230.027344 129.414062 230.152344 129.160156 230.386719 129.070312 C 230.390625 129.066406 231.292969 128.6875 231.550781 127.769531 C 232.039062 126.015625 231.964844 124.921875 231.785156 124.796875 C 230.820312 124.394531 230.167969 125.296875 230.140625 125.335938 C 230.019531 125.503906 229.808594 125.578125 229.609375 125.523438 C 229.410156 125.46875 229.265625 125.296875 229.25 125.089844 C 229.148438 123.855469 228.839844 122.351562 228.535156 122.078125 C 228.03125 121.613281 228.027344 120.832031 228.132812 120.21875 C 226.425781 120.644531 222.476562 121.457031 219.617188 120.734375 C 219.382812 122.164062 218.777344 126.023438 218.652344 127.945312 C 218.632812 128.257812 218.597656 128.589844 218.558594 128.910156 C 218.328125 130.988281 218.113281 132.953125 221.371094 133.839844 C 221.570312 133.894531 221.714844 134.070312 221.730469 134.273438 L 222.324219 141.339844 C 222.34375 141.554688 222.21875 141.753906 222.019531 141.835938 Z M 226.65625 147.007812 C 222.175781 147.007812 218.910156 145.171875 217.238281 143.445312 C 217.125 143.328125 217.078125 143.164062 217.109375 143.003906 C 217.144531 142.84375 217.253906 142.710938 217.40625 142.648438 L 221.3125 141.058594 L 220.777344 134.695312 C 217.058594 133.519531 217.359375 130.800781 217.582031 128.800781 C 217.617188 128.476562 217.652344 128.171875 217.671875 127.878906 C 217.828125 125.457031 218.699219 120.242188 218.734375 120.023438 C 218.757812 119.878906 218.84375 119.753906 218.96875 119.679688 C 219.09375 119.605469 219.242188 119.589844 219.378906 119.636719 C 222.71875 120.792969 228.625 119.070312 228.683594 119.054688 C 228.863281 119 229.054688 119.054688 229.183594 119.191406 C 229.308594 119.328125 229.347656 119.523438 229.285156 119.699219 C 229.082031 120.238281 228.941406 121.109375 229.203125 121.351562 C 229.71875 121.824219 229.988281 123.097656 230.125 124.050781 C 230.648438 123.734375 231.359375 123.554688 232.164062 123.890625 C 233.328125 124.371094 232.875 126.695312 232.5 128.035156 C 232.238281 128.964844 231.574219 129.511719 231.144531 129.777344 L 233.992188 140.40625 L 238.355469 142.359375 C 238.523438 142.433594 238.632812 142.59375 238.644531 142.777344 C 238.65625 142.957031 238.570312 143.132812 238.414062 143.226562 C 233.9375 146.007812 229.964844 147.007812 226.65625 147.007812 " fill-opacity="1" fill-rule="nonzero"/><path fill="#000000" d="M 223.4375 135.042969 C 222.75 135.042969 221.988281 134.96875 221.140625 134.800781 C 220.875 134.746094 220.703125 134.484375 220.757812 134.21875 C 220.808594 133.953125 221.070312 133.78125 221.335938 133.835938 C 227.371094 135.046875 228.449219 130.984375 228.496094 130.8125 C 228.558594 130.550781 228.828125 130.386719 229.089844 130.449219 C 229.351562 130.515625 229.515625 130.78125 229.453125 131.042969 C 229.441406 131.089844 228.425781 135.042969 223.4375 135.042969 " fill-opacity="1" fill-rule="nonzero"/><path fill="#000000" d="M 90.222656 107.246094 C 90.09375 107.246094 89.964844 107.195312 89.867188 107.097656 C 89.679688 106.902344 89.683594 106.589844 89.878906 106.402344 C 101.941406 94.730469 116.871094 86.527344 133.054688 82.679688 C 137.398438 81.644531 141.839844 80.917969 146.261719 80.523438 C 146.53125 80.5 146.769531 80.699219 146.796875 80.96875 C 146.820312 81.242188 146.621094 81.480469 146.347656 81.503906 C 141.976562 81.898438 137.578125 82.613281 133.28125 83.636719 C 117.269531 87.445312 102.5 95.5625 90.5625 107.109375 C 90.46875 107.199219 90.34375 107.246094 90.222656 107.246094 " fill-opacity="1" fill-rule="nonzero"/><path fill="#000000" d="M 82.003906 106.636719 C 81.875 106.636719 81.746094 106.589844 81.648438 106.488281 C 81.460938 106.292969 81.464844 105.980469 81.660156 105.792969 C 96.644531 91.292969 115.191406 81.101562 135.292969 76.320312 C 140.691406 75.035156 146.210938 74.136719 151.703125 73.644531 C 151.972656 73.621094 152.210938 73.820312 152.238281 74.09375 C 152.261719 74.363281 152.0625 74.601562 151.789062 74.625 C 146.34375 75.113281 140.871094 76.003906 135.519531 77.277344 C 115.589844 82.019531 97.203125 92.125 82.34375 106.5 C 82.25 106.59375 82.125 106.636719 82.003906 106.636719 " fill-opacity="1" fill-rule="nonzero"/><path fill="#000000" d="M 84.664062 95.039062 C 83.71875 95.261719 83.132812 96.210938 83.359375 97.15625 C 83.582031 98.101562 84.53125 98.683594 85.476562 98.460938 C 86.421875 98.238281 87.003906 97.285156 86.78125 96.339844 C 86.554688 95.398438 85.605469 94.8125 84.664062 95.039062 Z M 85.070312 99.492188 C 83.828125 99.492188 82.699219 98.644531 82.402344 97.382812 C 82.050781 95.914062 82.964844 94.429688 84.433594 94.078125 C 85.90625 93.730469 87.386719 94.644531 87.738281 96.117188 C 88.089844 97.585938 87.175781 99.070312 85.703125 99.417969 C 85.492188 99.46875 85.28125 99.492188 85.070312 99.492188 " fill-opacity="1" fill-rule="nonzero"/><path fill="#000000" d="M 92.929688 89.71875 C 92.949219 90.355469 92.992188 91.316406 93.074219 92.339844 L 95.472656 90.839844 Z M 92.65625 93.675781 C 92.582031 93.675781 92.507812 93.660156 92.4375 93.625 C 92.285156 93.550781 92.183594 93.402344 92.164062 93.234375 C 91.953125 91.121094 91.925781 88.980469 91.921875 88.957031 C 91.921875 88.792969 92.003906 88.632812 92.144531 88.542969 C 92.285156 88.449219 92.460938 88.433594 92.613281 88.503906 L 96.71875 90.316406 C 96.886719 90.390625 96.996094 90.550781 97.011719 90.734375 C 97.023438 90.914062 96.933594 91.089844 96.78125 91.183594 L 92.917969 93.601562 C 92.835938 93.652344 92.746094 93.675781 92.65625 93.675781 " fill-opacity="1" fill-rule="nonzero"/><path fill="#000000" d="M 99.34375 88.792969 C 99.335938 88.792969 99.328125 88.792969 99.320312 88.792969 C 99.046875 88.777344 98.839844 88.550781 98.851562 88.277344 C 98.855469 88.1875 98.976562 86.035156 100.695312 85.070312 C 101.261719 84.753906 102.007812 84.796875 102.800781 84.839844 C 103.566406 84.882812 104.363281 84.925781 104.925781 84.636719 C 105.355469 84.417969 105.707031 83.746094 106.042969 83.101562 C 106.5 82.230469 106.972656 81.328125 107.828125 80.941406 C 108.503906 80.636719 109.363281 80.917969 110.195312 81.1875 C 110.796875 81.386719 111.484375 81.609375 111.820312 81.480469 C 112.261719 81.308594 112.589844 80.644531 112.875 80.054688 C 113.113281 79.578125 113.316406 79.164062 113.613281 78.914062 C 113.824219 78.742188 114.136719 78.773438 114.308594 78.984375 C 114.480469 79.191406 114.449219 79.503906 114.242188 79.675781 C 114.105469 79.785156 113.921875 80.160156 113.761719 80.492188 C 113.410156 81.203125 112.976562 82.085938 112.179688 82.398438 C 111.515625 82.65625 110.6875 82.386719 109.886719 82.125 C 109.265625 81.921875 108.5625 81.691406 108.234375 81.839844 C 107.6875 82.085938 107.296875 82.835938 106.917969 83.558594 C 106.503906 84.339844 106.082031 85.148438 105.375 85.511719 C 104.574219 85.921875 103.601562 85.871094 102.746094 85.824219 C 102.128906 85.789062 101.492188 85.753906 101.179688 85.929688 C 99.9375 86.625 99.835938 88.308594 99.835938 88.328125 C 99.820312 88.589844 99.601562 88.792969 99.34375 88.792969 " fill-opacity="1" fill-rule="nonzero"/><path fill="#000000" d="M 275.953125 239.128906 C 275.808594 239.128906 275.660156 239.066406 275.5625 238.941406 C 275.398438 238.726562 275.4375 238.417969 275.652344 238.25 C 280.425781 234.550781 284.785156 231.941406 288.632812 229.640625 C 294.234375 226.292969 299.070312 223.398438 303.242188 218.34375 C 310.1875 209.929688 313.636719 197.75 313.214844 183.125 C 313.207031 182.851562 313.421875 182.625 313.695312 182.617188 C 313.699219 182.617188 313.703125 182.617188 313.707031 182.617188 C 313.972656 182.617188 314.191406 182.828125 314.199219 183.097656 C 314.628906 197.964844 311.101562 210.367188 304.003906 218.96875 C 299.71875 224.15625 294.816406 227.089844 289.136719 230.484375 C 285.316406 232.773438 280.980469 235.363281 276.253906 239.027344 C 276.164062 239.097656 276.058594 239.128906 275.953125 239.128906 " fill-opacity="1" fill-rule="nonzero"/><path fill="#000000" d="M 287.175781 223.230469 C 287.023438 223.230469 286.878906 223.164062 286.78125 223.035156 C 286.617188 222.816406 286.660156 222.507812 286.878906 222.34375 C 287.441406 221.921875 287.996094 221.507812 288.542969 221.105469 C 293.777344 217.207031 298.300781 213.84375 301.945312 208.394531 C 308.011719 199.324219 310.21875 186.863281 308.335938 172.351562 C 308.300781 172.082031 308.492188 171.835938 308.761719 171.800781 C 309.027344 171.765625 309.277344 171.957031 309.308594 172.226562 C 311.226562 186.976562 308.960938 199.671875 302.765625 208.941406 C 299.023438 214.535156 294.441406 217.945312 289.132812 221.894531 C 288.585938 222.300781 288.03125 222.710938 287.46875 223.132812 C 287.382812 223.199219 287.277344 223.230469 287.175781 223.230469 " fill-opacity="1" fill-rule="nonzero"/><path fill="#000000" d="M 277.796875 223.277344 C 276.855469 223.503906 276.269531 224.453125 276.492188 225.394531 C 276.71875 226.339844 277.667969 226.925781 278.609375 226.703125 C 279.070312 226.59375 279.457031 226.3125 279.703125 225.914062 C 279.949219 225.511719 280.023438 225.039062 279.914062 224.582031 C 279.691406 223.636719 278.738281 223.050781 277.796875 223.277344 Z M 278.203125 227.734375 C 276.964844 227.734375 275.835938 226.882812 275.535156 225.625 C 275.1875 224.152344 276.097656 222.667969 277.570312 222.320312 C 279.039062 221.96875 280.523438 222.882812 280.871094 224.355469 C 281.042969 225.066406 280.925781 225.804688 280.539062 226.429688 C 280.15625 227.054688 279.550781 227.488281 278.839844 227.660156 C 278.628906 227.710938 278.414062 227.734375 278.203125 227.734375 " fill-opacity="1" fill-rule="nonzero"/><path fill="#000000" d="M 269.179688 235.886719 C 269.199219 236.523438 269.242188 237.484375 269.324219 238.507812 L 271.722656 237.011719 Z M 268.90625 239.84375 C 268.832031 239.84375 268.757812 239.828125 268.691406 239.792969 C 268.535156 239.71875 268.433594 239.570312 268.417969 239.398438 C 268.207031 237.289062 268.175781 235.148438 268.175781 235.128906 C 268.171875 234.957031 268.257812 234.804688 268.394531 234.710938 C 268.535156 234.617188 268.714844 234.601562 268.867188 234.671875 L 272.96875 236.484375 C 273.136719 236.558594 273.25 236.71875 273.261719 236.902344 C 273.273438 237.082031 273.1875 237.257812 273.03125 237.351562 L 269.167969 239.769531 C 269.085938 239.820312 269 239.84375 268.90625 239.84375 " fill-opacity="1" fill-rule="nonzero"/><path fill="#ffffff" d="M 173.992188 104.269531 C 173.921875 104.269531 173.851562 104.253906 173.785156 104.222656 C 173.539062 104.109375 173.429688 103.820312 173.542969 103.570312 L 180.628906 88.097656 C 180.742188 87.847656 181.035156 87.742188 181.28125 87.851562 C 181.527344 87.96875 181.636719 88.261719 181.523438 88.507812 L 174.4375 103.980469 C 174.355469 104.164062 174.179688 104.269531 173.992188 104.269531 " fill-opacity="1" fill-rule="nonzero"/><path fill="#ffffff" d="M 167.796875 106.636719 C 167.527344 106.636719 167.304688 106.417969 167.304688 106.144531 C 167.304688 103.566406 164.320312 91.53125 164.289062 91.414062 C 164.222656 91.148438 164.382812 90.878906 164.648438 90.816406 C 164.910156 90.75 165.175781 90.910156 165.242188 91.171875 C 165.367188 91.675781 168.289062 103.449219 168.289062 106.144531 C 168.289062 106.417969 168.070312 106.636719 167.796875 106.636719 " fill-opacity="1" fill-rule="nonzero"/></svg>