<svg xmlns="http://www.w3.org/2000/svg" xmlns:xlink="http://www.w3.org/1999/xlink" width="500" zoomAndPan="magnify" viewBox="0 0 375 374.999991" height="500" preserveAspectRatio="xMidYMid meet" version="1.0"><defs><g/><clipPath id="c199f0f38a"><path d="M 37.5 164.363281 L 79.59375 164.363281 L 79.59375 206.457031 L 37.5 206.457031 Z M 37.5 164.363281 " clip-rule="nonzero"/></clipPath><clipPath id="4fe4b62096"><path d="M 58.546875 164.363281 C 46.921875 164.363281 37.5 173.785156 37.5 185.410156 C 37.5 197.035156 46.921875 206.457031 58.546875 206.457031 C 70.171875 206.457031 79.59375 197.035156 79.59375 185.410156 C 79.59375 173.785156 70.171875 164.363281 58.546875 164.363281 " clip-rule="nonzero"/></clipPath><clipPath id="8a0400ca5c"><path d="M 43 185 L 48 185 L 48 191 L 43 191 Z M 43 185 " clip-rule="nonzero"/></clipPath><clipPath id="4a51223bba"><path d="M 42.726562 189.585938 L 46.894531 185.417969 L 47.445312 185.964844 L 43.277344 190.132812 Z M 42.726562 189.585938 " clip-rule="nonzero"/></clipPath><clipPath id="f6b69c4159"><path d="M 42.726562 189.585938 L 58.195312 174.117188 L 59.070312 174.996094 L 43.605469 190.460938 Z M 42.726562 189.585938 " clip-rule="nonzero"/></clipPath><clipPath id="4e7aee3c43"><path d="M 57 172 L 74 172 L 74 199 L 57 199 Z M 57 172 " clip-rule="nonzero"/></clipPath><clipPath id="84d4aa550d"><path d="M 56.492188 196.253906 L 70.074219 172.035156 L 74.675781 174.613281 L 61.09375 198.832031 Z M 56.492188 196.253906 " clip-rule="nonzero"/></clipPath><clipPath id="35c7cd8f2f"><path d="M 56.492188 196.253906 L 70.074219 172.035156 L 74.675781 174.613281 L 61.09375 198.832031 Z M 56.492188 196.253906 " clip-rule="nonzero"/></clipPath><clipPath id="ec27a47953"><path d="M 56.492188 196.253906 L 70.074219 172.035156 L 74.675781 174.613281 L 61.09375 198.832031 Z M 56.492188 196.253906 " clip-rule="nonzero"/></clipPath><clipPath id="8b53113993"><path d="M 45 188 L 59 188 L 59 201 L 45 201 Z M 45 188 " clip-rule="nonzero"/></clipPath><clipPath id="0830a8099e"><path d="M 47.460938 188.066406 L 59.058594 198.832031 L 57.050781 200.992188 L 45.457031 190.226562 Z M 47.460938 188.066406 " clip-rule="nonzero"/></clipPath><clipPath id="d8106eaebf"><path d="M 47.460938 188.066406 L 59.058594 198.832031 L 57.050781 200.992188 L 45.457031 190.226562 Z M 47.460938 188.066406 " clip-rule="nonzero"/></clipPath><clipPath id="29a8ace987"><path d="M 47.460938 188.066406 L 59.058594 198.832031 L 57.050781 200.992188 L 45.457031 190.226562 Z M 47.460938 188.066406 " clip-rule="nonzero"/></clipPath></defs><g clip-path="url(#c199f0f38a)"><g clip-path="url(#4fe4b62096)"><path fill="#39a9db" d="M 37.5 164.363281 L 79.59375 164.363281 L 79.59375 206.457031 L 37.5 206.457031 Z M 37.5 164.363281 " fill-opacity="1" fill-rule="nonzero"/></g></g><g clip-path="url(#8a0400ca5c)"><g clip-path="url(#4a51223bba)"><g clip-path="url(#f6b69c4159)"><path fill="#fbfaf9" d="M 58.265625 174.636719 C 58.25 174.59375 58.21875 174.566406 58.195312 174.621094 C 58.164062 174.679688 58.109375 174.699219 58.050781 174.730469 C 57.914062 174.789062 57.761719 174.847656 57.660156 174.949219 C 57.554688 175.058594 57.414062 175.078125 57.300781 175.15625 C 57.167969 175.246094 57.035156 175.355469 56.960938 175.492188 C 56.878906 175.628906 56.722656 175.6875 56.671875 175.816406 C 56.605469 175.984375 56.457031 176.066406 56.339844 176.164062 C 56.226562 176.253906 56.195312 176.417969 56.023438 176.457031 C 55.96875 176.464844 55.960938 176.613281 55.914062 176.675781 C 55.835938 176.773438 55.753906 176.871094 55.652344 176.9375 C 55.519531 177.015625 55.425781 177.125 55.328125 177.242188 C 55.066406 177.527344 54.804688 177.808594 54.535156 178.085938 C 54.390625 178.234375 54.230469 178.359375 54.089844 178.515625 C 53.777344 178.871094 53.429688 179.195312 53.101562 179.53125 C 52.773438 179.792969 52.519531 180.121094 52.238281 180.429688 C 52.042969 180.648438 51.796875 180.8125 51.667969 181.089844 C 51.574219 181.136719 51.511719 181.207031 51.4375 181.28125 C 51.117188 181.625 50.785156 181.964844 50.457031 182.300781 C 50.316406 182.4375 50.164062 182.5625 50.070312 182.742188 C 50.015625 182.855469 49.921875 182.9375 49.800781 182.992188 C 49.671875 183.050781 49.585938 183.15625 49.558594 183.300781 C 49.539062 183.332031 49.527344 183.375 49.496094 183.390625 C 49.210938 183.5625 49.003906 183.808594 48.8125 184.074219 C 48.78125 184.121094 48.742188 184.195312 48.691406 184.210938 C 48.539062 184.253906 48.496094 184.390625 48.40625 184.484375 C 48.308594 184.582031 48.203125 184.664062 48.128906 184.789062 C 48.09375 184.851562 48.042969 184.910156 47.984375 184.957031 C 47.789062 185.113281 47.621094 185.292969 47.460938 185.480469 C 47.230469 185.726562 46.980469 185.953125 46.769531 186.214844 C 46.488281 186.566406 46.179688 186.890625 45.863281 187.207031 C 45.203125 187.867188 44.617188 188.59375 43.984375 189.28125 C 43.917969 189.355469 43.824219 189.433594 43.8125 189.519531 C 43.785156 189.71875 43.640625 189.832031 43.511719 190.046875 C 44.339844 189.253906 45.167969 188.578125 45.890625 187.785156 C 46.222656 187.414062 46.605469 187.09375 46.964844 186.753906 C 47.101562 186.625 47.253906 186.511719 47.378906 186.375 C 47.675781 186.058594 47.941406 185.71875 48.304688 185.464844 C 48.382812 185.410156 48.453125 185.328125 48.507812 185.246094 C 48.585938 185.132812 48.691406 185.042969 48.804688 184.964844 C 48.9375 184.882812 48.929688 184.6875 49.097656 184.636719 C 49.261719 184.417969 49.519531 184.289062 49.652344 184.039062 C 49.925781 183.757812 50.28125 183.5625 50.5 183.222656 C 50.644531 183.175781 50.6875 183.023438 50.785156 182.941406 C 50.894531 182.847656 51.003906 182.757812 51.113281 182.65625 C 51.261719 182.515625 51.355469 182.34375 51.488281 182.199219 C 51.679688 181.996094 51.980469 181.914062 52.085938 181.617188 C 52.273438 181.546875 52.347656 181.363281 52.46875 181.226562 C 52.535156 181.152344 52.605469 181.0625 52.691406 181.039062 C 52.851562 180.996094 52.925781 180.871094 53.015625 180.761719 C 53.046875 180.722656 53.054688 180.652344 53.09375 180.636719 C 53.328125 180.535156 53.402344 180.292969 53.5625 180.125 C 53.796875 180.003906 53.996094 179.847656 54.109375 179.59375 C 54.230469 179.429688 54.425781 179.335938 54.539062 179.164062 C 54.570312 179.121094 54.640625 179.097656 54.691406 179.070312 C 54.742188 179.035156 54.804688 179.007812 54.839844 178.957031 C 54.941406 178.804688 55.101562 178.730469 55.222656 178.605469 C 55.335938 178.484375 55.4375 178.34375 55.570312 178.234375 C 55.695312 178.132812 55.835938 178.035156 55.929688 177.921875 C 56.039062 177.785156 56.183594 177.679688 56.285156 177.542969 C 56.441406 177.328125 56.617188 177.140625 56.824219 176.980469 C 57.035156 176.8125 57.171875 176.546875 57.460938 176.476562 C 57.46875 176.453125 57.476562 176.4375 57.488281 176.417969 C 57.480469 176.402344 57.484375 176.386719 57.488281 176.375 C 57.496094 176.34375 57.527344 176.316406 57.550781 176.292969 C 57.5625 176.277344 57.59375 176.269531 57.613281 176.269531 C 57.667969 176.277344 57.65625 176.300781 57.648438 176.324219 C 57.660156 176.324219 57.671875 176.324219 57.6875 176.324219 C 57.707031 176.324219 57.730469 176.261719 57.734375 176.230469 C 57.738281 176.164062 57.746094 176.117188 57.804688 176.070312 C 57.929688 175.972656 58.027344 175.851562 58.167969 175.769531 C 58.363281 175.652344 58.472656 175.449219 58.578125 175.25 C 58.609375 175.191406 58.613281 175.117188 58.550781 175.078125 C 58.398438 174.976562 58.558594 174.875 58.527344 174.773438 C 58.414062 174.757812 58.304688 174.765625 58.265625 174.636719 Z M 50.121094 183.328125 C 50.105469 183.328125 50.085938 183.324219 50.070312 183.328125 C 50.085938 183.324219 50.105469 183.328125 50.121094 183.328125 Z M 53.824219 179.507812 C 53.816406 179.527344 53.8125 179.550781 53.808594 179.566406 C 53.8125 179.550781 53.816406 179.527344 53.824219 179.507812 Z M 51.621094 181.761719 C 51.648438 181.726562 51.679688 181.695312 51.710938 181.65625 C 51.675781 181.699219 51.652344 181.730469 51.621094 181.761719 Z M 51.066406 182.367188 C 51.046875 182.371094 51.027344 182.371094 51.015625 182.375 C 51.03125 182.367188 51.050781 182.367188 51.066406 182.367188 Z M 51.066406 182.367188 " fill-opacity="1" fill-rule="nonzero"/></g></g></g><g clip-path="url(#4e7aee3c43)"><g clip-path="url(#84d4aa550d)"><g clip-path="url(#35c7cd8f2f)"><g clip-path="url(#ec27a47953)"><path fill="#ffffff" d="M 69.953125 173.214844 C 69.828125 173.324219 69.707031 173.5 69.585938 173.675781 C 69.582031 173.660156 69.570312 173.644531 69.550781 173.636719 C 69.488281 173.738281 69.5 173.800781 69.425781 173.910156 C 69.425781 173.863281 69.390625 173.882812 69.367188 173.941406 C 69.359375 173.894531 69.433594 173.800781 69.460938 173.824219 C 69.46875 173.800781 69.449219 173.792969 69.441406 173.8125 C 69.605469 173.550781 69.714844 173.253906 69.886719 173.050781 C 69.71875 173.132812 69.476562 173.566406 69.308594 173.738281 C 69.289062 173.710938 69.355469 173.628906 69.375 173.667969 C 69.378906 173.640625 69.398438 173.601562 69.378906 173.585938 C 69.515625 173.425781 69.640625 173.230469 69.730469 173.050781 C 69.921875 172.890625 70.105469 172.636719 70.308594 172.597656 C 70.402344 172.636719 70.433594 172.6875 70.515625 172.710938 C 70.578125 172.8125 70.636719 172.921875 70.636719 173.054688 C 70.769531 173.035156 70.859375 173.03125 70.953125 173.078125 C 70.957031 173.109375 70.925781 173.222656 70.980469 173.160156 C 70.976562 173.199219 70.96875 173.242188 70.96875 173.28125 C 71.003906 173.289062 71.058594 173.210938 71.0625 173.269531 C 71.039062 173.332031 71.011719 173.324219 70.988281 173.378906 C 71.058594 173.402344 71.152344 173.296875 71.253906 173.308594 C 71.378906 173.328125 71.457031 173.46875 71.585938 173.535156 C 71.496094 173.695312 71.6875 173.726562 71.546875 173.941406 C 71.710938 173.8125 71.917969 173.605469 72.042969 173.402344 C 72.109375 173.386719 72.253906 173.398438 72.238281 173.507812 C 72.269531 173.5 72.300781 173.488281 72.328125 173.472656 C 72.335938 173.523438 72.238281 173.640625 72.320312 173.617188 C 72.257812 173.796875 72.097656 173.988281 72.125 174.152344 C 72.152344 174.167969 72.175781 174.101562 72.203125 174.089844 C 72.234375 174.101562 72.25 174.15625 72.28125 174.15625 C 72.355469 174.074219 72.347656 174.132812 72.398438 174.046875 C 72.417969 174.085938 72.421875 174.128906 72.390625 174.191406 C 72.445312 174.15625 72.496094 174.066406 72.554688 174.070312 C 72.503906 174.285156 72.421875 174.347656 72.316406 174.558594 C 72.535156 174.292969 72.761719 174.070312 72.988281 173.878906 C 73.039062 173.902344 73.085938 173.925781 73.058594 173.960938 C 73.109375 173.949219 73.097656 173.910156 73.09375 173.871094 C 73.195312 173.90625 73.257812 173.929688 73.363281 173.871094 C 73.421875 173.949219 73.328125 174.042969 73.292969 174.15625 C 73.351562 174.167969 73.410156 174.171875 73.464844 174.101562 C 73.535156 174.207031 73.363281 174.476562 73.347656 174.59375 C 73.433594 174.59375 73.4375 174.460938 73.476562 174.363281 C 73.507812 174.410156 73.53125 174.347656 73.558594 174.367188 C 73.40625 174.664062 73.480469 174.738281 73.28125 175.027344 C 73.558594 175.195312 73.585938 175.492188 73.734375 175.726562 C 73.628906 175.855469 73.640625 175.945312 73.644531 176.042969 C 73.671875 176.066406 73.6875 175.949219 73.714844 175.972656 C 73.679688 176.121094 73.574219 176.300781 73.484375 176.492188 C 73.402344 176.667969 73.324219 176.8125 73.214844 176.898438 C 72.851562 177.804688 72.394531 178.417969 71.949219 179.332031 C 71.90625 179.328125 71.964844 179.269531 71.929688 179.257812 C 71.777344 179.53125 71.589844 180.054688 71.378906 180.285156 C 71.359375 180.34375 71.332031 180.285156 71.308594 180.308594 C 71.199219 180.519531 71.164062 180.746094 71.019531 180.835938 C 70.835938 181.121094 70.742188 181.496094 70.558594 181.675781 C 70.089844 182.542969 69.738281 183.257812 69.253906 183.9375 C 69.003906 184.335938 68.84375 184.6875 68.589844 185.09375 C 68.570312 185.003906 68.644531 184.867188 68.695312 184.742188 C 68.59375 184.882812 68.449219 185.128906 68.347656 185.34375 C 68.011719 186.070312 67.585938 186.785156 67.160156 187.476562 C 67.117188 187.496094 67.148438 187.46875 67.136719 187.441406 C 67.023438 187.5625 66.988281 187.738281 66.933594 187.867188 C 66.894531 187.886719 66.902344 187.851562 66.878906 187.835938 C 66.785156 187.96875 66.855469 187.953125 66.820312 188.042969 C 66.789062 188.125 66.804688 188.003906 66.769531 188.054688 C 66.746094 188.089844 66.769531 188.097656 66.785156 188.105469 C 66.664062 188.285156 66.570312 188.429688 66.464844 188.660156 C 66.433594 188.730469 66.445312 188.632812 66.402344 188.667969 C 66.246094 188.941406 66.089844 189.367188 65.890625 189.652344 C 65.796875 189.785156 65.761719 189.882812 65.675781 190.046875 C 65.597656 190.183594 65.464844 190.285156 65.363281 190.429688 C 65.277344 190.550781 65.214844 190.765625 65.082031 190.941406 C 65.066406 190.929688 65.105469 190.890625 65.085938 190.878906 C 64.792969 191.449219 64.414062 192.132812 64.171875 192.691406 C 63.773438 193.304688 63.464844 194.101562 63.136719 194.671875 C 63.128906 194.648438 63.136719 194.617188 63.160156 194.578125 C 62.800781 195.117188 62.308594 195.976562 61.929688 196.710938 C 61.898438 196.78125 61.945312 196.808594 61.882812 196.898438 C 61.921875 196.976562 61.851562 197.109375 61.824219 197.210938 C 61.820312 197.226562 61.824219 197.292969 61.8125 197.308594 C 61.679688 197.578125 61.519531 197.386719 61.335938 197.476562 C 61.324219 197.570312 61.292969 197.660156 61.210938 197.707031 C 61.144531 197.664062 61.21875 197.546875 61.191406 197.480469 C 61.164062 197.496094 61.105469 197.554688 61.136719 197.582031 C 61.09375 197.605469 61.0625 197.585938 61.0625 197.539062 C 61.023438 197.59375 61.078125 197.601562 61.039062 197.65625 C 61.011719 197.648438 61.015625 197.628906 61.003906 197.613281 C 60.96875 197.664062 60.996094 197.675781 60.960938 197.695312 C 60.890625 197.664062 60.835938 197.621094 60.84375 197.546875 C 60.589844 197.835938 60.261719 198.003906 59.96875 198.203125 C 59.90625 198.15625 59.9375 198.0625 59.871094 198.019531 C 59.945312 197.796875 59.996094 197.65625 60.125 197.40625 C 60.125 197.355469 60.046875 197.402344 60.046875 197.34375 C 60.09375 197.28125 60.144531 197.179688 60.121094 197.105469 C 60.070312 197.15625 60.066406 197.191406 60.007812 197.257812 C 59.988281 197.230469 60.007812 197.1875 59.988281 197.160156 C 59.867188 197.230469 59.863281 197.011719 59.757812 197.035156 C 59.75 196.992188 59.828125 196.953125 59.851562 196.894531 C 59.769531 196.960938 59.882812 196.792969 59.871094 196.753906 C 59.84375 196.746094 59.820312 196.902344 59.796875 196.839844 C 59.71875 197.011719 59.722656 196.953125 59.660156 197.085938 C 59.503906 196.972656 59.582031 196.6875 59.652344 196.375 C 59.597656 196.394531 59.5 196.421875 59.476562 196.363281 C 59.441406 196.375 59.441406 196.464844 59.425781 196.507812 C 59.390625 196.488281 59.410156 196.445312 59.386719 196.421875 C 59.335938 196.445312 59.386719 196.460938 59.351562 196.507812 C 59.3125 196.425781 59.386719 196.347656 59.394531 196.253906 C 59.308594 196.304688 59.304688 196.40625 59.257812 196.5 C 59.242188 196.484375 59.277344 196.445312 59.230469 196.445312 C 59.203125 196.488281 59.25 196.496094 59.199219 196.554688 C 59.160156 196.542969 59.203125 196.488281 59.152344 196.484375 C 59.117188 196.578125 59.070312 196.683594 59.015625 196.753906 C 58.976562 196.730469 59.007812 196.671875 58.996094 196.636719 C 58.949219 196.679688 58.957031 196.734375 58.917969 196.804688 C 58.867188 196.785156 58.816406 196.757812 58.871094 196.632812 C 58.84375 196.621094 58.832031 196.605469 58.828125 196.585938 C 58.757812 196.636719 58.757812 196.675781 58.667969 196.820312 C 58.605469 196.816406 58.621094 196.703125 58.574219 196.703125 C 58.472656 196.703125 58.433594 196.804688 58.363281 196.929688 C 58.351562 196.855469 58.308594 196.863281 58.300781 196.789062 C 58.222656 196.851562 58.214844 196.769531 58.148438 196.726562 C 58.164062 196.695312 58.183594 196.699219 58.195312 196.667969 C 58.101562 196.566406 58.308594 196.304688 58.210938 196.203125 C 58.148438 196.265625 58.070312 196.160156 58.003906 196.21875 C 57.914062 196.046875 57.609375 195.984375 57.773438 195.683594 C 57.714844 195.671875 57.664062 195.714844 57.617188 195.8125 C 57.574219 195.769531 57.539062 195.8125 57.507812 195.878906 C 57.464844 195.820312 57.46875 195.808594 57.402344 195.863281 C 57.347656 195.734375 57.242188 195.703125 57.148438 195.550781 C 57.5625 194.898438 58.089844 193.957031 58.457031 193.378906 C 58.464844 193.363281 58.449219 193.359375 58.445312 193.351562 C 58.578125 193.253906 58.65625 193.035156 58.6875 192.886719 C 58.691406 192.898438 58.695312 192.910156 58.710938 192.917969 C 58.757812 192.851562 58.742188 192.816406 58.792969 192.75 C 58.894531 192.621094 59.117188 192.0625 59.300781 191.722656 C 59.5 191.351562 59.664062 190.9375 59.71875 190.730469 C 59.84375 190.722656 59.914062 190.515625 60.019531 190.316406 C 60.042969 190.265625 60.074219 190.308594 60.097656 190.273438 C 60.105469 190.148438 60.34375 189.898438 60.347656 189.746094 C 60.324219 189.722656 60.304688 189.730469 60.285156 189.777344 C 60.3125 189.640625 60.4375 189.519531 60.480469 189.371094 C 60.464844 189.375 60.449219 189.402344 60.429688 189.386719 C 60.566406 189.167969 60.738281 188.949219 60.875 188.835938 C 60.898438 188.746094 60.957031 188.714844 61.003906 188.652344 C 61.140625 188.472656 61.253906 188.148438 61.382812 187.917969 C 61.773438 187.195312 62.226562 186.527344 62.554688 185.839844 C 62.574219 185.835938 62.585938 185.808594 62.605469 185.824219 C 62.886719 185.300781 63.082031 184.867188 63.371094 184.359375 C 63.34375 184.339844 63.324219 184.378906 63.300781 184.40625 C 63.363281 184.269531 63.472656 184.171875 63.554688 184.074219 C 63.542969 183.917969 63.679688 183.878906 63.765625 183.71875 C 63.796875 183.722656 63.765625 183.757812 63.78125 183.769531 C 64.117188 183.257812 64.214844 182.6875 64.609375 182.191406 C 64.601562 182.160156 64.609375 182.121094 64.628906 182.074219 C 64.691406 182.128906 64.585938 182.269531 64.570312 182.363281 C 64.714844 182.113281 64.847656 181.789062 65.074219 181.527344 C 65.03125 181.363281 65.257812 181.101562 65.363281 180.847656 C 65.382812 180.851562 65.375 180.875 65.386719 180.882812 C 65.429688 180.804688 65.476562 180.769531 65.515625 180.699219 C 65.480469 180.675781 65.453125 180.742188 65.421875 180.792969 C 65.441406 180.632812 65.636719 180.503906 65.5625 180.378906 C 65.625 180.296875 65.660156 180.238281 65.652344 180.171875 C 65.671875 180.175781 65.660156 180.195312 65.675781 180.207031 C 65.988281 179.785156 66.269531 179.265625 66.601562 178.679688 C 66.554688 178.664062 66.519531 178.78125 66.476562 178.804688 C 66.734375 178.214844 67.246094 177.679688 67.445312 177.042969 C 67.367188 177.105469 67.269531 177.292969 67.21875 177.347656 C 67.195312 177.378906 67.175781 177.464844 67.144531 177.457031 C 67.253906 177.273438 67.257812 177.191406 67.351562 177.035156 C 67.351562 177 67.335938 176.980469 67.363281 176.933594 C 67.367188 176.980469 67.398438 176.941406 67.429688 176.96875 C 67.480469 176.90625 67.46875 176.871094 67.480469 176.824219 C 67.578125 176.761719 67.605469 176.667969 67.632812 176.546875 C 68.058594 176.039062 68.371094 175.257812 68.769531 174.640625 C 68.734375 174.824219 68.554688 175.023438 68.542969 175.203125 C 68.589844 175.191406 68.621094 175.035156 68.671875 175.101562 C 68.714844 175.035156 68.671875 175.015625 68.710938 174.953125 C 68.738281 174.941406 68.761719 174.953125 68.765625 174.984375 C 68.8125 174.835938 68.957031 174.589844 69.109375 174.464844 C 69.082031 174.515625 69.054688 174.5625 69.027344 174.613281 C 69.242188 174.285156 69.601562 173.796875 69.8125 173.394531 C 69.886719 173.390625 69.851562 173.324219 69.953125 173.214844 Z M 63.164062 184.890625 C 63.203125 184.804688 63.265625 184.726562 63.261719 184.8125 C 63.304688 184.75 63.285156 184.71875 63.300781 184.664062 C 63.261719 184.734375 63.257812 184.691406 63.25 184.65625 C 63.253906 184.742188 63.097656 184.839844 63.164062 184.890625 Z M 67.558594 176.890625 C 67.542969 176.910156 67.523438 176.914062 67.550781 176.929688 C 67.597656 176.84375 67.628906 176.757812 67.667969 176.714844 C 67.621094 176.695312 67.550781 176.835938 67.558594 176.890625 Z M 65.296875 181.5625 C 65.328125 181.601562 65.371094 181.484375 65.34375 181.480469 C 65.320312 181.519531 65.292969 181.519531 65.296875 181.5625 Z M 65.382812 181.457031 C 65.40625 181.398438 65.480469 181.3125 65.472656 181.273438 C 65.417969 181.355469 65.367188 181.375 65.382812 181.457031 Z M 64.535156 184.1875 C 64.59375 184.15625 64.605469 184.042969 64.648438 184.054688 C 64.675781 184.007812 64.664062 183.953125 64.699219 183.933594 C 64.6875 183.925781 64.671875 183.917969 64.65625 183.910156 C 64.625 184 64.554688 184.105469 64.535156 184.1875 Z M 69.363281 176.8125 C 69.382812 176.757812 69.421875 176.691406 69.394531 176.660156 C 69.359375 176.722656 69.304688 176.796875 69.363281 176.8125 Z M 69.640625 176.496094 C 69.746094 176.253906 69.554688 176.574219 69.566406 176.625 C 69.597656 176.570312 69.625 176.53125 69.640625 176.496094 Z M 62.019531 191.742188 C 62.039062 191.734375 62.089844 191.648438 62.054688 191.632812 C 62.03125 191.675781 61.996094 191.726562 62.019531 191.742188 Z M 65.355469 187.191406 C 65.328125 187.148438 65.257812 187.265625 65.269531 187.292969 C 65.296875 187.222656 65.332031 187.273438 65.355469 187.191406 Z M 65.5 186.925781 C 65.601562 186.792969 65.648438 186.660156 65.753906 186.488281 C 65.691406 186.570312 65.507812 186.8125 65.5 186.925781 Z M 65.980469 186.078125 C 65.96875 186.101562 65.953125 186.136719 65.933594 186.113281 C 65.902344 186.226562 65.792969 186.363281 65.75 186.445312 C 65.890625 186.285156 65.945312 186.203125 65.980469 186.078125 Z M 65.074219 187.828125 C 65.03125 187.949219 64.894531 188.082031 64.914062 188.148438 C 65.050781 187.972656 65.300781 187.554688 65.375 187.308594 C 65.265625 187.476562 65.183594 187.566406 65.109375 187.742188 C 65.21875 187.636719 65.03125 187.847656 65.035156 187.847656 C 65.046875 187.832031 65.058594 187.832031 65.074219 187.828125 Z M 66.089844 185.988281 C 66.109375 185.949219 66.132812 185.910156 66.152344 185.871094 C 66.113281 185.839844 66.074219 185.972656 66.089844 185.988281 Z M 65.402344 187.257812 C 65.398438 187.269531 65.394531 187.28125 65.402344 187.28125 C 65.449219 187.210938 65.558594 186.980469 65.457031 187.160156 C 65.414062 187.179688 65.4375 187.21875 65.402344 187.238281 C 65.394531 187.234375 65.386719 187.230469 65.378906 187.246094 C 65.386719 187.25 65.394531 187.253906 65.402344 187.257812 Z M 64.953125 188.234375 C 64.964844 188.261719 64.941406 188.308594 64.949219 188.339844 C 65.167969 187.992188 65.492188 187.375 65.710938 186.957031 C 65.449219 187.289062 65.230469 187.824219 64.953125 188.234375 Z M 71.980469 176.710938 C 72.144531 176.582031 72.308594 176.351562 72.414062 176.136719 C 72.285156 176.34375 72.042969 176.523438 71.980469 176.710938 Z M 71.691406 177.496094 C 71.753906 177.460938 71.824219 177.320312 71.828125 177.25 C 71.851562 177.269531 71.871094 177.269531 71.890625 177.242188 C 71.882812 177.199219 71.863281 177.242188 71.855469 177.199219 C 71.761719 177.265625 71.730469 177.375 71.691406 177.496094 Z M 71.539062 177.796875 C 71.574219 177.730469 71.609375 177.71875 71.640625 177.640625 C 71.582031 177.613281 71.519531 177.785156 71.539062 177.796875 Z M 72.425781 176.421875 C 72.464844 176.375 72.492188 176.324219 72.546875 176.230469 C 72.496094 176.203125 72.449219 176.363281 72.425781 176.421875 Z M 64.746094 191.292969 C 64.742188 191.34375 64.636719 191.441406 64.636719 191.511719 C 64.691406 191.496094 64.769531 191.339844 64.746094 191.292969 Z M 68.796875 184.199219 C 68.773438 184.261719 68.71875 184.273438 68.722656 184.332031 C 68.808594 184.296875 68.867188 184.152344 68.929688 184.035156 C 69.027344 183.847656 69.097656 183.660156 69.21875 183.488281 C 69.058594 183.628906 68.863281 184.058594 68.796875 184.199219 Z M 69.351562 183.21875 C 69.40625 183.152344 69.488281 182.976562 69.519531 182.859375 C 69.464844 182.988281 69.296875 183.164062 69.351562 183.21875 Z M 69.882812 182.203125 C 69.929688 182.234375 69.789062 182.359375 69.835938 182.390625 C 69.898438 182.320312 69.917969 182.25 69.941406 182.171875 C 69.976562 182.179688 69.984375 182.179688 70.035156 182.15625 C 70.128906 181.761719 70.46875 181.519531 70.554688 181.136719 C 70.304688 181.472656 70.148438 181.878906 69.882812 182.203125 Z M 68.257812 185.253906 C 68.210938 185.335938 68.105469 185.414062 68.152344 185.496094 C 68.335938 185.210938 68.492188 184.914062 68.597656 184.582031 C 68.480469 184.796875 68.375 185.046875 68.257812 185.253906 Z M 68.257812 185.253906 " fill-opacity="1" fill-rule="evenodd"/></g></g></g></g><g clip-path="url(#8b53113993)"><g clip-path="url(#0830a8099e)"><g clip-path="url(#d8106eaebf)"><g clip-path="url(#29a8ace987)"><path fill="#ffffff" d="M 58.421875 198.601562 C 58.378906 198.515625 58.296875 198.425781 58.214844 198.335938 C 58.226562 198.335938 58.234375 198.332031 58.242188 198.324219 C 58.195312 198.273438 58.15625 198.273438 58.105469 198.21875 C 58.132812 198.222656 58.128906 198.199219 58.097656 198.179688 C 58.125 198.179688 58.167969 198.234375 58.152344 198.25 C 58.164062 198.257812 58.167969 198.246094 58.160156 198.238281 C 58.28125 198.363281 58.433594 198.464844 58.523438 198.585938 C 58.5 198.484375 58.289062 198.292969 58.21875 198.175781 C 58.234375 198.171875 58.269531 198.214844 58.246094 198.222656 C 58.261719 198.226562 58.28125 198.246094 58.292969 198.238281 C 58.363281 198.332031 58.453125 198.429688 58.542969 198.503906 C 58.605469 198.628906 58.722656 198.765625 58.71875 198.878906 C 58.683594 198.925781 58.652344 198.9375 58.628906 198.976562 C 58.5625 199 58.496094 199.015625 58.421875 198.996094 C 58.417969 199.070312 58.410156 199.121094 58.371094 199.167969 C 58.351562 199.164062 58.296875 199.132812 58.324219 199.171875 C 58.300781 199.160156 58.277344 199.152344 58.257812 199.148438 C 58.25 199.164062 58.285156 199.203125 58.253906 199.199219 C 58.222656 199.179688 58.230469 199.164062 58.203125 199.144531 C 58.179688 199.179688 58.226562 199.246094 58.207031 199.300781 C 58.179688 199.363281 58.09375 199.386719 58.039062 199.449219 C 57.960938 199.378906 57.921875 199.480469 57.820312 199.371094 C 57.871094 199.480469 57.957031 199.621094 58.054688 199.71875 C 58.054688 199.753906 58.027344 199.832031 57.96875 199.808594 C 57.972656 199.828125 57.976562 199.847656 57.976562 199.863281 C 57.949219 199.863281 57.898438 199.792969 57.898438 199.839844 C 57.808594 199.78125 57.726562 199.667969 57.628906 199.660156 C 57.617188 199.671875 57.652344 199.695312 57.65625 199.710938 C 57.644531 199.726562 57.613281 199.726562 57.609375 199.746094 C 57.644531 199.796875 57.613281 199.785156 57.652344 199.824219 C 57.632812 199.828125 57.605469 199.824219 57.574219 199.796875 C 57.585938 199.832031 57.632812 199.875 57.621094 199.90625 C 57.507812 199.847656 57.484375 199.792969 57.382812 199.707031 C 57.5 199.863281 57.59375 200.019531 57.671875 200.167969 C 57.652344 200.191406 57.632812 200.214844 57.617188 200.195312 C 57.617188 200.226562 57.640625 200.222656 57.660156 200.226562 C 57.628906 200.277344 57.609375 200.308594 57.628906 200.375 C 57.578125 200.398438 57.539062 200.332031 57.480469 200.296875 C 57.464844 200.328125 57.457031 200.359375 57.488281 200.398438 C 57.421875 200.421875 57.292969 200.292969 57.234375 200.269531 C 57.222656 200.316406 57.292969 200.335938 57.34375 200.371094 C 57.3125 200.378906 57.34375 200.402344 57.332031 200.414062 C 57.1875 200.289062 57.136719 200.320312 57.003906 200.171875 C 56.875 200.300781 56.707031 200.273438 56.558594 200.324219 C 56.503906 200.246094 56.453125 200.242188 56.398438 200.230469 C 56.378906 200.242188 56.445312 200.265625 56.425781 200.277344 C 56.347656 200.238281 56.265625 200.15625 56.171875 200.082031 C 56.082031 200.011719 56.015625 199.949219 55.980469 199.878906 C 55.53125 199.554688 55.25 199.21875 54.804688 198.847656 C 54.8125 198.824219 54.835938 198.867188 54.847656 198.851562 C 54.714844 198.726562 54.453125 198.554688 54.351562 198.40625 C 54.324219 198.386719 54.355469 198.378906 54.347656 198.363281 C 54.246094 198.277344 54.125 198.226562 54.09375 198.132812 C 53.960938 197.996094 53.765625 197.890625 53.691406 197.765625 C 53.273438 197.390625 52.925781 197.101562 52.613281 196.742188 C 52.425781 196.546875 52.25 196.414062 52.0625 196.21875 C 52.113281 196.21875 52.179688 196.28125 52.242188 196.324219 C 52.175781 196.25 52.058594 196.136719 51.953125 196.050781 C 51.597656 195.765625 51.257812 195.4375 50.929688 195.109375 C 50.925781 195.082031 50.9375 195.105469 50.953125 195.101562 C 50.902344 195.023438 50.808594 194.980469 50.746094 194.929688 C 50.742188 194.90625 50.757812 194.914062 50.769531 194.902344 C 50.707031 194.835938 50.707031 194.875 50.664062 194.84375 C 50.625 194.816406 50.6875 194.839844 50.664062 194.816406 C 50.648438 194.796875 50.640625 194.808594 50.632812 194.816406 C 50.550781 194.726562 50.480469 194.65625 50.367188 194.566406 C 50.335938 194.539062 50.386719 194.558594 50.371094 194.53125 C 50.242188 194.40625 50.027344 194.261719 49.898438 194.113281 C 49.835938 194.042969 49.785156 194.011719 49.707031 193.941406 C 49.640625 193.878906 49.601562 193.792969 49.535156 193.71875 C 49.480469 193.65625 49.371094 193.59375 49.289062 193.492188 C 49.296875 193.488281 49.316406 193.511719 49.324219 193.503906 C 49.046875 193.265625 48.71875 192.964844 48.441406 192.757812 C 48.15625 192.453125 47.757812 192.175781 47.484375 191.917969 C 47.496094 191.914062 47.515625 191.925781 47.53125 191.941406 C 47.28125 191.671875 46.871094 191.285156 46.515625 190.976562 C 46.480469 190.949219 46.460938 190.972656 46.417969 190.925781 C 46.371094 190.933594 46.308594 190.878906 46.253906 190.851562 C 46.246094 190.84375 46.210938 190.835938 46.203125 190.828125 C 46.070312 190.71875 46.195312 190.660156 46.171875 190.546875 C 46.121094 190.527344 46.078125 190.496094 46.058594 190.445312 C 46.09375 190.414062 46.148438 190.472656 46.1875 190.464844 C 46.183594 190.449219 46.15625 190.410156 46.140625 190.421875 C 46.128906 190.394531 46.144531 190.378906 46.171875 190.386719 C 46.148438 190.359375 46.136719 190.386719 46.109375 190.359375 C 46.117188 190.34375 46.128906 190.351562 46.136719 190.34375 C 46.113281 190.320312 46.105469 190.332031 46.097656 190.308594 C 46.125 190.277344 46.15625 190.25 46.195312 190.265625 C 46.066406 190.085938 46.015625 189.886719 45.945312 189.699219 C 45.980469 189.671875 46.027344 189.699219 46.058594 189.671875 C 46.171875 189.742188 46.242188 189.789062 46.363281 189.890625 C 46.390625 189.898438 46.375 189.851562 46.410156 189.859375 C 46.4375 189.894531 46.484375 189.933594 46.53125 189.929688 C 46.507812 189.898438 46.488281 189.890625 46.460938 189.847656 C 46.476562 189.839844 46.5 189.859375 46.515625 189.851562 C 46.492188 189.777344 46.613281 189.804688 46.613281 189.742188 C 46.640625 189.746094 46.652344 189.792969 46.679688 189.8125 C 46.65625 189.761719 46.730469 189.84375 46.753906 189.84375 C 46.761719 189.832031 46.679688 189.796875 46.71875 189.789062 C 46.632812 189.726562 46.664062 189.734375 46.597656 189.683594 C 46.679688 189.613281 46.828125 189.695312 46.992188 189.777344 C 46.988281 189.746094 46.984375 189.6875 47.019531 189.679688 C 47.019531 189.660156 46.96875 189.648438 46.949219 189.632812 C 46.960938 189.617188 46.984375 189.636719 47 189.625 C 46.992188 189.59375 46.976562 189.617188 46.957031 189.59375 C 47.007812 189.585938 47.039062 189.632812 47.089844 189.652344 C 47.074219 189.597656 47.019531 189.582031 46.972656 189.542969 C 46.984375 189.539062 47 189.5625 47.007812 189.535156 C 46.984375 189.515625 46.976562 189.539062 46.949219 189.503906 C 46.960938 189.484375 46.984375 189.515625 46.996094 189.488281 C 46.949219 189.457031 46.894531 189.414062 46.863281 189.378906 C 46.878906 189.359375 46.910156 189.382812 46.929688 189.382812 C 46.914062 189.351562 46.882812 189.347656 46.847656 189.316406 C 46.867188 189.289062 46.886719 189.265625 46.949219 189.316406 C 46.957031 189.300781 46.96875 189.296875 46.980469 189.296875 C 46.960938 189.25 46.9375 189.246094 46.871094 189.175781 C 46.882812 189.144531 46.941406 189.167969 46.949219 189.140625 C 46.960938 189.085938 46.910156 189.050781 46.847656 188.996094 C 46.894531 189 46.894531 188.972656 46.9375 188.980469 C 46.910156 188.929688 46.957031 188.9375 46.988281 188.90625 C 47.003906 188.917969 47 188.929688 47.015625 188.941406 C 47.085938 188.902344 47.203125 189.050781 47.269531 189.011719 C 47.242188 188.96875 47.308594 188.941406 47.289062 188.898438 C 47.394531 188.871094 47.464844 188.714844 47.613281 188.84375 C 47.625 188.8125 47.609375 188.78125 47.5625 188.742188 C 47.589844 188.722656 47.570312 188.699219 47.539062 188.671875 C 47.574219 188.65625 47.582031 188.660156 47.558594 188.617188 C 47.636719 188.605469 47.667969 188.550781 47.761719 188.519531 C 48.070312 188.839844 48.519531 189.253906 48.792969 189.535156 C 48.800781 189.542969 48.804688 189.535156 48.808594 189.53125 C 48.84375 189.617188 48.957031 189.691406 49.035156 189.730469 C 49.027344 189.730469 49.019531 189.730469 49.011719 189.738281 C 49.042969 189.773438 49.066406 189.769531 49.097656 189.804688 C 49.152344 189.878906 49.433594 190.078125 49.597656 190.226562 C 49.777344 190.386719 49.980469 190.53125 50.089844 190.589844 C 50.078125 190.660156 50.183594 190.726562 50.277344 190.8125 C 50.304688 190.832031 50.273438 190.84375 50.292969 190.859375 C 50.359375 190.882812 50.46875 191.046875 50.550781 191.070312 C 50.566406 191.058594 50.5625 191.046875 50.539062 191.03125 C 50.613281 191.066406 50.664062 191.148438 50.738281 191.195312 C 50.738281 191.183594 50.726562 191.171875 50.738281 191.164062 C 50.839844 191.269531 50.9375 191.394531 50.984375 191.484375 C 51.03125 191.507812 51.039062 191.546875 51.070312 191.582031 C 51.152344 191.679688 51.3125 191.785156 51.425781 191.886719 C 51.769531 192.203125 52.082031 192.542969 52.417969 192.816406 C 52.417969 192.824219 52.433594 192.835938 52.421875 192.84375 C 52.671875 193.070312 52.886719 193.238281 53.128906 193.464844 C 53.144531 193.453125 53.125 193.4375 53.113281 193.421875 C 53.179688 193.472656 53.21875 193.546875 53.261719 193.605469 C 53.347656 193.621094 53.355469 193.699219 53.429688 193.769531 C 53.425781 193.785156 53.410156 193.761719 53.402344 193.769531 C 53.640625 194.023438 53.941406 194.15625 54.164062 194.441406 C 54.183594 194.441406 54.203125 194.453125 54.226562 194.46875 C 54.1875 194.496094 54.125 194.417969 54.074219 194.398438 C 54.195312 194.507812 54.355469 194.628906 54.472656 194.789062 C 54.566406 194.785156 54.679688 194.945312 54.808594 195.039062 C 54.800781 195.050781 54.792969 195.039062 54.785156 195.046875 C 54.824219 195.082031 54.835938 195.109375 54.871094 195.144531 C 54.886719 195.128906 54.855469 195.101562 54.828125 195.078125 C 54.914062 195.109375 54.964844 195.234375 55.039062 195.214844 C 55.078125 195.257812 55.105469 195.285156 55.144531 195.289062 C 55.136719 195.300781 55.128906 195.292969 55.121094 195.296875 C 55.3125 195.527344 55.5625 195.753906 55.84375 196.015625 C 55.859375 195.992188 55.796875 195.957031 55.792969 195.929688 C 56.082031 196.152344 56.3125 196.503906 56.636719 196.703125 C 56.613281 196.648438 56.519531 196.570312 56.496094 196.535156 C 56.484375 196.519531 56.4375 196.496094 56.445312 196.480469 C 56.535156 196.566406 56.578125 196.578125 56.652344 196.652344 C 56.671875 196.65625 56.683594 196.648438 56.707031 196.671875 C 56.679688 196.667969 56.699219 196.691406 56.679688 196.703125 C 56.707031 196.738281 56.726562 196.738281 56.75 196.75 C 56.773438 196.8125 56.820312 196.839844 56.886719 196.875 C 57.113281 197.175781 57.5 197.453125 57.789062 197.757812 C 57.691406 197.714844 57.605469 197.585938 57.507812 197.554688 C 57.507812 197.582031 57.59375 197.621094 57.546875 197.640625 C 57.578125 197.671875 57.59375 197.652344 57.625 197.683594 C 57.628906 197.699219 57.617188 197.710938 57.601562 197.707031 C 57.675781 197.753906 57.792969 197.867188 57.84375 197.964844 C 57.820312 197.945312 57.796875 197.921875 57.773438 197.902344 C 57.921875 198.066406 58.148438 198.328125 58.34375 198.5 C 58.335938 198.539062 58.375 198.53125 58.421875 198.601562 Z M 52.863281 193.28125 C 52.90625 193.3125 52.941406 193.359375 52.894531 193.34375 C 52.921875 193.375 52.945312 193.371094 52.96875 193.386719 C 52.9375 193.355469 52.960938 193.355469 52.980469 193.359375 C 52.933594 193.347656 52.898438 193.25 52.863281 193.28125 Z M 56.707031 196.785156 C 56.695312 196.773438 56.695312 196.761719 56.6875 196.773438 C 56.726562 196.8125 56.769531 196.84375 56.789062 196.871094 C 56.804688 196.84375 56.738281 196.789062 56.707031 196.785156 Z M 54.421875 194.90625 C 54.398438 194.917969 54.457031 194.957031 54.464844 194.941406 C 54.445312 194.921875 54.449219 194.910156 54.421875 194.90625 Z M 54.46875 194.964844 C 54.5 194.984375 54.535156 195.039062 54.5625 195.039062 C 54.519531 195 54.515625 194.96875 54.46875 194.964844 Z M 53.078125 194.125 C 53.085938 194.160156 53.148438 194.183594 53.132812 194.207031 C 53.15625 194.226562 53.1875 194.226562 53.195312 194.25 C 53.199219 194.246094 53.207031 194.238281 53.210938 194.230469 C 53.167969 194.199219 53.117188 194.148438 53.078125 194.125 Z M 56.519531 197.785156 C 56.546875 197.800781 56.578125 197.832031 56.601562 197.820312 C 56.570312 197.792969 56.535156 197.753906 56.519531 197.785156 Z M 56.660156 197.976562 C 56.777344 198.070312 56.625 197.917969 56.59375 197.921875 C 56.621094 197.941406 56.640625 197.964844 56.660156 197.976562 Z M 49.238281 191.710938 C 49.242188 191.71875 49.28125 191.761719 49.296875 191.742188 C 49.273438 191.722656 49.25 191.699219 49.238281 191.710938 Z M 51.320312 194.160156 C 51.347656 194.152344 51.292969 194.097656 51.273438 194.101562 C 51.308594 194.125 51.277344 194.136719 51.320312 194.160156 Z M 51.445312 194.277344 C 51.507812 194.351562 51.574219 194.394531 51.652344 194.476562 C 51.617188 194.429688 51.507812 194.296875 51.445312 194.277344 Z M 51.851562 194.65625 C 51.839844 194.644531 51.824219 194.632812 51.835938 194.625 C 51.78125 194.589844 51.71875 194.511719 51.679688 194.480469 C 51.75 194.578125 51.789062 194.621094 51.851562 194.65625 Z M 51.003906 193.917969 C 50.941406 193.878906 50.886719 193.785156 50.847656 193.785156 C 50.929688 193.886719 51.125 194.082031 51.25 194.15625 C 51.171875 194.074219 51.132812 194.015625 51.046875 193.949219 C 51.089844 194.023438 51 193.894531 50.996094 193.894531 C 51.003906 193.902344 51.003906 193.910156 51.003906 193.917969 Z M 51.886719 194.726562 C 51.90625 194.746094 51.925781 194.761719 51.941406 194.777344 C 51.964844 194.761719 51.898438 194.722656 51.886719 194.726562 Z M 51.273438 194.175781 C 51.269531 194.171875 51.265625 194.167969 51.261719 194.175781 C 51.292969 194.210938 51.40625 194.300781 51.324219 194.21875 C 51.316406 194.195312 51.292969 194.203125 51.289062 194.179688 C 51.289062 194.175781 51.292969 194.171875 51.285156 194.167969 C 51.28125 194.171875 51.277344 194.171875 51.273438 194.175781 Z M 50.796875 193.796875 C 50.78125 193.800781 50.757812 193.78125 50.738281 193.78125 C 50.902344 193.945312 51.199219 194.210938 51.402344 194.386719 C 51.253906 194.199219 50.988281 194.003906 50.796875 193.796875 Z M 56.242188 199.226562 C 56.289062 199.335938 56.398438 199.457031 56.503906 199.542969 C 56.402344 199.445312 56.335938 199.289062 56.242188 199.226562 Z M 55.847656 198.960938 C 55.855469 199 55.925781 199.058594 55.964844 199.070312 C 55.953125 199.078125 55.949219 199.089844 55.960938 199.105469 C 55.984375 199.105469 55.964844 199.089844 55.988281 199.09375 C 55.964844 199.03125 55.90625 199 55.847656 198.960938 Z M 55.699219 198.835938 C 55.730469 198.863281 55.734375 198.886719 55.773438 198.914062 C 55.792969 198.886719 55.710938 198.828125 55.699219 198.835938 Z M 56.34375 199.511719 C 56.363281 199.539062 56.390625 199.558594 56.433594 199.601562 C 56.453125 199.578125 56.375 199.53125 56.34375 199.511719 Z M 49.140625 193.261719 C 49.113281 193.253906 49.070312 193.183594 49.03125 193.171875 C 49.035156 193.203125 49.109375 193.269531 49.140625 193.261719 Z M 52.527344 196.453125 C 52.496094 196.433594 52.496094 196.402344 52.464844 196.398438 C 52.472656 196.449219 52.542969 196.5 52.601562 196.550781 C 52.691406 196.628906 52.785156 196.691406 52.863281 196.78125 C 52.808594 196.675781 52.597656 196.511719 52.527344 196.453125 Z M 52.996094 196.894531 C 53.023438 196.929688 53.109375 197 53.171875 197.035156 C 53.109375 196.988281 53.03125 196.871094 52.996094 196.894531 Z M 53.488281 197.324219 C 53.464844 197.34375 53.410156 197.25 53.390625 197.273438 C 53.421875 197.316406 53.457031 197.335938 53.496094 197.359375 C 53.488281 197.378906 53.488281 197.382812 53.492188 197.414062 C 53.695312 197.519531 53.789062 197.738281 53.988281 197.839844 C 53.835938 197.65625 53.632812 197.511719 53.488281 197.324219 Z M 52.015625 196.015625 C 51.976562 195.976562 51.945312 195.910156 51.894531 195.925781 C 52.027344 196.0625 52.171875 196.191406 52.339844 196.292969 C 52.238281 196.199219 52.113281 196.105469 52.015625 196.015625 Z M 52.015625 196.015625 " fill-opacity="1" fill-rule="evenodd"/></g></g></g></g><g fill="#ffffff" fill-opacity="1"><g transform="translate(96.366575, 198.111973)"><g><path d="M 13.296875 0.34375 C 10.828125 0.34375 8.707031 -0.128906 6.9375 -1.078125 C 5.164062 -2.023438 3.804688 -3.363281 2.859375 -5.09375 C 1.921875 -6.820312 1.453125 -8.847656 1.453125 -11.171875 C 1.453125 -13.492188 1.921875 -15.515625 2.859375 -17.234375 C 3.804688 -18.953125 5.164062 -20.285156 6.9375 -21.234375 C 8.707031 -22.191406 10.828125 -22.671875 13.296875 -22.671875 C 14.265625 -22.671875 15.269531 -22.554688 16.3125 -22.328125 C 17.363281 -22.109375 18.289062 -21.78125 19.09375 -21.34375 C 19.675781 -21.019531 20.082031 -20.613281 20.3125 -20.125 C 20.550781 -19.644531 20.640625 -19.148438 20.578125 -18.640625 C 20.515625 -18.140625 20.328125 -17.6875 20.015625 -17.28125 C 19.710938 -16.882812 19.328125 -16.613281 18.859375 -16.46875 C 18.398438 -16.332031 17.894531 -16.40625 17.34375 -16.6875 C 16.101562 -17.289062 14.828125 -17.59375 13.515625 -17.59375 C 11.554688 -17.59375 10.078125 -17.039062 9.078125 -15.9375 C 8.085938 -14.832031 7.59375 -13.242188 7.59375 -11.171875 C 7.59375 -9.085938 8.085938 -7.488281 9.078125 -6.375 C 10.078125 -5.269531 11.554688 -4.71875 13.515625 -4.71875 C 14.066406 -4.71875 14.65625 -4.785156 15.28125 -4.921875 C 15.914062 -5.054688 16.539062 -5.273438 17.15625 -5.578125 C 17.789062 -5.847656 18.351562 -5.921875 18.84375 -5.796875 C 19.34375 -5.671875 19.75 -5.414062 20.0625 -5.03125 C 20.382812 -4.65625 20.582031 -4.21875 20.65625 -3.71875 C 20.726562 -3.21875 20.660156 -2.722656 20.453125 -2.234375 C 20.242188 -1.753906 19.851562 -1.367188 19.28125 -1.078125 C 18.539062 -0.628906 17.625 -0.28125 16.53125 -0.03125 C 15.445312 0.21875 14.367188 0.34375 13.296875 0.34375 Z M 13.296875 0.34375 "/></g></g></g><g fill="#ffffff" fill-opacity="1"><g transform="translate(118.135295, 198.111973)"><g><path d="M 3.078125 0.28125 C 2.078125 0.28125 1.34375 -0.0507812 0.875 -0.71875 C 0.414062 -1.394531 0.421875 -2.242188 0.890625 -3.265625 L 8.765625 -20.234375 C 9.148438 -21.054688 9.613281 -21.65625 10.15625 -22.03125 C 10.707031 -22.414062 11.351562 -22.609375 12.09375 -22.609375 C 12.8125 -22.609375 13.441406 -22.414062 13.984375 -22.03125 C 14.535156 -21.65625 15.003906 -21.054688 15.390625 -20.234375 L 23.265625 -3.265625 C 23.753906 -2.222656 23.773438 -1.367188 23.328125 -0.703125 C 22.890625 -0.046875 22.191406 0.28125 21.234375 0.28125 C 20.390625 0.28125 19.738281 0.09375 19.28125 -0.28125 C 18.832031 -0.664062 18.429688 -1.28125 18.078125 -2.125 L 17.0625 -4.53125 L 7.09375 -4.53125 L 6.078125 -2.125 C 5.703125 -1.28125 5.3125 -0.664062 4.90625 -0.28125 C 4.507812 0.09375 3.898438 0.28125 3.078125 0.28125 Z M 12.03125 -16.234375 L 8.984375 -8.984375 L 15.125 -8.984375 L 12.09375 -16.234375 Z M 12.03125 -16.234375 "/></g></g></g><g fill="#ffffff" fill-opacity="1"><g transform="translate(142.277063, 198.111973)"><g><path d="M 4.9375 0.28125 C 4.007812 0.28125 3.289062 0.03125 2.78125 -0.46875 C 2.28125 -0.976562 2.03125 -1.707031 2.03125 -2.65625 L 2.03125 -19.375 C 2.03125 -20.320312 2.28125 -21.046875 2.78125 -21.546875 C 3.289062 -22.054688 4.019531 -22.3125 4.96875 -22.3125 L 12.75 -22.3125 C 15.289062 -22.3125 17.25 -21.691406 18.625 -20.453125 C 20.007812 -19.222656 20.703125 -17.515625 20.703125 -15.328125 C 20.703125 -13.660156 20.285156 -12.257812 19.453125 -11.125 C 18.617188 -10 17.410156 -9.210938 15.828125 -8.765625 C 17.003906 -8.453125 17.953125 -7.640625 18.671875 -6.328125 L 20.265625 -3.484375 C 20.597656 -2.847656 20.75 -2.242188 20.71875 -1.671875 C 20.6875 -1.109375 20.457031 -0.640625 20.03125 -0.265625 C 19.613281 0.0976562 18.992188 0.28125 18.171875 0.28125 C 17.347656 0.28125 16.675781 0.117188 16.15625 -0.203125 C 15.644531 -0.535156 15.1875 -1.066406 14.78125 -1.796875 L 11.90625 -7.09375 C 11.644531 -7.550781 11.320312 -7.867188 10.9375 -8.046875 C 10.550781 -8.234375 10.101562 -8.328125 9.59375 -8.328125 L 7.84375 -8.328125 L 7.84375 -2.65625 C 7.84375 -1.707031 7.59375 -0.976562 7.09375 -0.46875 C 6.601562 0.03125 5.882812 0.28125 4.9375 0.28125 Z M 7.84375 -12.4375 L 11.71875 -12.4375 C 14.007812 -12.4375 15.15625 -13.34375 15.15625 -15.15625 C 15.15625 -16.957031 14.007812 -17.859375 11.71875 -17.859375 L 7.84375 -17.859375 Z M 7.84375 -12.4375 "/></g></g></g><g fill="#ffffff" fill-opacity="1"><g transform="translate(164.615323, 198.111973)"><g><path d="M 5.0625 0 C 3.039062 0 2.03125 -1 2.03125 -3 L 2.03125 -19.3125 C 2.03125 -21.3125 3.039062 -22.3125 5.0625 -22.3125 L 15.796875 -22.3125 C 17.316406 -22.3125 18.078125 -21.578125 18.078125 -20.109375 C 18.078125 -18.585938 17.316406 -17.828125 15.796875 -17.828125 L 7.59375 -17.828125 L 7.59375 -13.578125 L 15.09375 -13.578125 C 16.613281 -13.578125 17.375 -12.828125 17.375 -11.328125 C 17.375 -9.828125 16.613281 -9.078125 15.09375 -9.078125 L 7.59375 -9.078125 L 7.59375 -4.5 L 15.796875 -4.5 C 17.316406 -4.5 18.078125 -3.75 18.078125 -2.25 C 18.078125 -0.75 17.316406 0 15.796875 0 Z M 5.0625 0 "/></g></g></g><g fill="#ffffff" fill-opacity="1"><g transform="translate(184.04264, 198.111973)"><g><path d="M 5.0625 0 C 3.039062 0 2.03125 -1 2.03125 -3 L 2.03125 -19.3125 C 2.03125 -21.3125 3.039062 -22.3125 5.0625 -22.3125 L 15.796875 -22.3125 C 17.316406 -22.3125 18.078125 -21.578125 18.078125 -20.109375 C 18.078125 -18.585938 17.316406 -17.828125 15.796875 -17.828125 L 7.59375 -17.828125 L 7.59375 -13.578125 L 15.09375 -13.578125 C 16.613281 -13.578125 17.375 -12.828125 17.375 -11.328125 C 17.375 -9.828125 16.613281 -9.078125 15.09375 -9.078125 L 7.59375 -9.078125 L 7.59375 -4.5 L 15.796875 -4.5 C 17.316406 -4.5 18.078125 -3.75 18.078125 -2.25 C 18.078125 -0.75 17.316406 0 15.796875 0 Z M 5.0625 0 "/></g></g></g><g fill="#ffffff" fill-opacity="1"><g transform="translate(203.469957, 198.111973)"><g><path d="M 4.9375 0.28125 C 4.007812 0.28125 3.289062 0.03125 2.78125 -0.46875 C 2.28125 -0.976562 2.03125 -1.707031 2.03125 -2.65625 L 2.03125 -19.375 C 2.03125 -20.320312 2.28125 -21.046875 2.78125 -21.546875 C 3.289062 -22.054688 4.019531 -22.3125 4.96875 -22.3125 L 12.75 -22.3125 C 15.289062 -22.3125 17.25 -21.691406 18.625 -20.453125 C 20.007812 -19.222656 20.703125 -17.515625 20.703125 -15.328125 C 20.703125 -13.660156 20.285156 -12.257812 19.453125 -11.125 C 18.617188 -10 17.410156 -9.210938 15.828125 -8.765625 C 17.003906 -8.453125 17.953125 -7.640625 18.671875 -6.328125 L 20.265625 -3.484375 C 20.597656 -2.847656 20.75 -2.242188 20.71875 -1.671875 C 20.6875 -1.109375 20.457031 -0.640625 20.03125 -0.265625 C 19.613281 0.0976562 18.992188 0.28125 18.171875 0.28125 C 17.347656 0.28125 16.675781 0.117188 16.15625 -0.203125 C 15.644531 -0.535156 15.1875 -1.066406 14.78125 -1.796875 L 11.90625 -7.09375 C 11.644531 -7.550781 11.320312 -7.867188 10.9375 -8.046875 C 10.550781 -8.234375 10.101562 -8.328125 9.59375 -8.328125 L 7.84375 -8.328125 L 7.84375 -2.65625 C 7.84375 -1.707031 7.59375 -0.976562 7.09375 -0.46875 C 6.601562 0.03125 5.882812 0.28125 4.9375 0.28125 Z M 7.84375 -12.4375 L 11.71875 -12.4375 C 14.007812 -12.4375 15.15625 -13.34375 15.15625 -15.15625 C 15.15625 -16.957031 14.007812 -17.859375 11.71875 -17.859375 L 7.84375 -17.859375 Z M 7.84375 -12.4375 "/></g></g></g><g fill="#ffffff" fill-opacity="1"><g transform="translate(225.808216, 198.111973)"><g/></g></g><g fill="#ffffff" fill-opacity="1"><g transform="translate(234.857425, 198.111973)"><g><path d="M 4.9375 0.28125 C 4.007812 0.28125 3.289062 0.03125 2.78125 -0.46875 C 2.28125 -0.976562 2.03125 -1.707031 2.03125 -2.65625 L 2.03125 -19.375 C 2.03125 -20.320312 2.28125 -21.046875 2.78125 -21.546875 C 3.289062 -22.054688 4.019531 -22.3125 4.96875 -22.3125 L 12.75 -22.3125 C 15.289062 -22.3125 17.25 -21.691406 18.625 -20.453125 C 20.007812 -19.222656 20.703125 -17.515625 20.703125 -15.328125 C 20.703125 -13.660156 20.285156 -12.257812 19.453125 -11.125 C 18.617188 -10 17.410156 -9.210938 15.828125 -8.765625 C 17.003906 -8.453125 17.953125 -7.640625 18.671875 -6.328125 L 20.265625 -3.484375 C 20.597656 -2.847656 20.75 -2.242188 20.71875 -1.671875 C 20.6875 -1.109375 20.457031 -0.640625 20.03125 -0.265625 C 19.613281 0.0976562 18.992188 0.28125 18.171875 0.28125 C 17.347656 0.28125 16.675781 0.117188 16.15625 -0.203125 C 15.644531 -0.535156 15.1875 -1.066406 14.78125 -1.796875 L 11.90625 -7.09375 C 11.644531 -7.550781 11.320312 -7.867188 10.9375 -8.046875 C 10.550781 -8.234375 10.101562 -8.328125 9.59375 -8.328125 L 7.84375 -8.328125 L 7.84375 -2.65625 C 7.84375 -1.707031 7.59375 -0.976562 7.09375 -0.46875 C 6.601562 0.03125 5.882812 0.28125 4.9375 0.28125 Z M 7.84375 -12.4375 L 11.71875 -12.4375 C 14.007812 -12.4375 15.15625 -13.34375 15.15625 -15.15625 C 15.15625 -16.957031 14.007812 -17.859375 11.71875 -17.859375 L 7.84375 -17.859375 Z M 7.84375 -12.4375 "/></g></g></g><g fill="#ffffff" fill-opacity="1"><g transform="translate(257.195685, 198.111973)"><g><path d="M 5.0625 0 C 3.039062 0 2.03125 -1 2.03125 -3 L 2.03125 -19.3125 C 2.03125 -21.3125 3.039062 -22.3125 5.0625 -22.3125 L 15.796875 -22.3125 C 17.316406 -22.3125 18.078125 -21.578125 18.078125 -20.109375 C 18.078125 -18.585938 17.316406 -17.828125 15.796875 -17.828125 L 7.59375 -17.828125 L 7.59375 -13.578125 L 15.09375 -13.578125 C 16.613281 -13.578125 17.375 -12.828125 17.375 -11.328125 C 17.375 -9.828125 16.613281 -9.078125 15.09375 -9.078125 L 7.59375 -9.078125 L 7.59375 -4.5 L 15.796875 -4.5 C 17.316406 -4.5 18.078125 -3.75 18.078125 -2.25 C 18.078125 -0.75 17.316406 0 15.796875 0 Z M 5.0625 0 "/></g></g></g><g fill="#ffffff" fill-opacity="1"><g transform="translate(276.623002, 198.111973)"><g><path d="M 3.078125 0.28125 C 2.078125 0.28125 1.34375 -0.0507812 0.875 -0.71875 C 0.414062 -1.394531 0.421875 -2.242188 0.890625 -3.265625 L 8.765625 -20.234375 C 9.148438 -21.054688 9.613281 -21.65625 10.15625 -22.03125 C 10.707031 -22.414062 11.351562 -22.609375 12.09375 -22.609375 C 12.8125 -22.609375 13.441406 -22.414062 13.984375 -22.03125 C 14.535156 -21.65625 15.003906 -21.054688 15.390625 -20.234375 L 23.265625 -3.265625 C 23.753906 -2.222656 23.773438 -1.367188 23.328125 -0.703125 C 22.890625 -0.046875 22.191406 0.28125 21.234375 0.28125 C 20.390625 0.28125 19.738281 0.09375 19.28125 -0.28125 C 18.832031 -0.664062 18.429688 -1.28125 18.078125 -2.125 L 17.0625 -4.53125 L 7.09375 -4.53125 L 6.078125 -2.125 C 5.703125 -1.28125 5.3125 -0.664062 4.90625 -0.28125 C 4.507812 0.09375 3.898438 0.28125 3.078125 0.28125 Z M 12.03125 -16.234375 L 8.984375 -8.984375 L 15.125 -8.984375 L 12.09375 -16.234375 Z M 12.03125 -16.234375 "/></g></g></g><g fill="#ffffff" fill-opacity="1"><g transform="translate(300.76477, 198.111973)"><g><path d="M 5.0625 0 C 3.039062 0 2.03125 -1 2.03125 -3 L 2.03125 -19.3125 C 2.03125 -21.3125 3.039062 -22.3125 5.0625 -22.3125 L 11.265625 -22.3125 C 15.128906 -22.3125 18.125 -21.34375 20.25 -19.40625 C 22.382812 -17.46875 23.453125 -14.722656 23.453125 -11.171875 C 23.453125 -7.628906 22.382812 -4.878906 20.25 -2.921875 C 18.125 -0.972656 15.128906 0 11.265625 0 Z M 7.84375 -4.71875 L 10.890625 -4.71875 C 13.109375 -4.71875 14.75 -5.25 15.8125 -6.3125 C 16.875 -7.382812 17.40625 -9.003906 17.40625 -11.171875 C 17.40625 -13.347656 16.867188 -14.960938 15.796875 -16.015625 C 14.722656 -17.066406 13.085938 -17.59375 10.890625 -17.59375 L 7.84375 -17.59375 Z M 7.84375 -4.71875 "/></g></g></g><g fill="#ffffff" fill-opacity="1"><g transform="translate(325.634267, 198.111973)"><g><path d="M 10.1875 0.28125 C 9.257812 0.28125 8.539062 0.0234375 8.03125 -0.484375 C 7.53125 -1.003906 7.28125 -1.75 7.28125 -2.71875 L 7.28125 -9.875 L 1.203125 -18.671875 C 0.847656 -19.179688 0.695312 -19.738281 0.75 -20.34375 C 0.800781 -20.957031 1.050781 -21.488281 1.5 -21.9375 C 1.957031 -22.382812 2.609375 -22.609375 3.453125 -22.609375 C 4.046875 -22.609375 4.582031 -22.457031 5.0625 -22.15625 C 5.550781 -21.863281 6.003906 -21.390625 6.421875 -20.734375 L 10.28125 -15.0625 L 14.15625 -20.765625 C 14.59375 -21.421875 15.039062 -21.890625 15.5 -22.171875 C 15.96875 -22.460938 16.519531 -22.609375 17.15625 -22.609375 C 17.957031 -22.609375 18.578125 -22.40625 19.015625 -22 C 19.460938 -21.601562 19.703125 -21.097656 19.734375 -20.484375 C 19.765625 -19.867188 19.570312 -19.242188 19.15625 -18.609375 L 13.109375 -9.875 L 13.109375 -2.71875 C 13.109375 -0.71875 12.132812 0.28125 10.1875 0.28125 Z M 10.1875 0.28125 "/></g></g></g></svg>